M48
INCH,TZ
T01C.016
;LEADER: 12 
;HEADER: 
;CODE  : ASCII 
;FILE  : PROIECT1_ENACHEVICTOR-1-2.drl for  ... layers TOP and BOTTOM
;DESIGN: PROIECT1_ENACHEVICTOR.brd
;T01 Holesize 1. = 16.000000 Tolerance = +0.000000/-0.000000 PLATED MILS Quantity = 33
%
G90
T01
X75000Y118000
X71000Y103000
X15459Y66554
X27000Y62000
X82000Y15000
X28000Y96000
X151000Y36000
X59000Y14000
X66000Y74000
X133000Y58000
X141000Y97000
X119000Y72000
X62000Y44000
X43000Y61000
X152000Y47000
X27260Y16740
X101000Y84000
X45000Y67000
X69000Y137000
X123000Y31000
X62000Y35480
X53740Y43740
X129000Y67000
X109000Y102000
X82764Y69764
X18000Y135000
X30000Y128000
X136000Y103000
X27000Y54000
X40000Y12000
X81000Y10000
X100000Y150000
X148740Y72740
M30
