G04 ================== begin FILE IDENTIFICATION RECORD ==================*
G04 Layout Name:  PROIECT1_ENACHEVICTOR.brd*
G04 Film Name:    FAB*
G04 File Format:  Gerber RS274X*
G04 File Origin:  Cadence Allegro 24.1-S001*
G04 Origin Date:  Sat Dec  7 16:34:57 2024*
G04 *
G04 Layer:  MANUFACTURING/NCDRILL_LEGEND*
G04 Layer:  MANUFACTURING/NCDRILL_FIGURE*
G04 Layer:  MANUFACTURING/XSECTION_CHART*
G04 Layer:  MANUFACTURING/NCLEGEND-1-2*
G04 Layer:  BOARD GEOMETRY/DESIGN_OUTLINE*
G04 *
G04 Offset:    (0.00 0.00)*
G04 Mirror:    No*
G04 Mode:      Positive*
G04 Rotation:  0*
G04 FullContactRelief:  No*
G04 UndefLineWidth:     0.10*
G04 ================== end FILE IDENTIFICATION RECORD ====================*
%FSLAX25Y25*MOIN*%
%IR0*IPPOS*OFA0.00000B0.00000*MIA0B0*SFA1.00000B1.00000*%
%AMMACRO10*
1,1,.0001,.025,0.0*
20,1,.0001,.025,0.0,.02462,-.004341,0.0*
1,1,.0001,.02462,-.004341*
20,1,.0001,.02462,-.004341,.023492,-.008551,0.0*
1,1,.0001,.023492,-.008551*
20,1,.0001,.023492,-.008551,.021651,-.0125,0.0*
1,1,.0001,.021651,-.0125*
20,1,.0001,.021651,-.0125,.019151,-.01607,0.0*
1,1,.0001,.019151,-.01607*
20,1,.0001,.019151,-.01607,.01607,-.019151,0.0*
1,1,.0001,.01607,-.019151*
20,1,.0001,.01607,-.019151,.0125,-.021651,0.0*
1,1,.0001,.0125,-.021651*
20,1,.0001,.0125,-.021651,.008551,-.023492,0.0*
1,1,.0001,.008551,-.023492*
20,1,.0001,.008551,-.023492,.004341,-.02462,0.0*
1,1,.0001,.004341,-.02462*
20,1,.0001,.004341,-.02462,0.0,-.025,0.0*
1,1,.0001,0.0,-.025*
20,1,.0001,0.0,-.025,-.004341,-.02462,0.0*
1,1,.0001,-.004341,-.02462*
20,1,.0001,-.004341,-.02462,-.008551,-.023492,0.0*
1,1,.0001,-.008551,-.023492*
20,1,.0001,-.008551,-.023492,-.0125,-.021651,0.0*
1,1,.0001,-.0125,-.021651*
20,1,.0001,-.0125,-.021651,-.01607,-.019151,0.0*
1,1,.0001,-.01607,-.019151*
20,1,.0001,-.01607,-.019151,-.019151,-.01607,0.0*
1,1,.0001,-.019151,-.01607*
20,1,.0001,-.019151,-.01607,-.021651,-.0125,0.0*
1,1,.0001,-.021651,-.0125*
20,1,.0001,-.021651,-.0125,-.023492,-.008551,0.0*
1,1,.0001,-.023492,-.008551*
20,1,.0001,-.023492,-.008551,-.02462,-.004341,0.0*
1,1,.0001,-.02462,-.004341*
20,1,.0001,-.02462,-.004341,-.025,0.0,0.0*
1,1,.0001,-.025,0.0*
20,1,.0001,-.025,0.0,-.02462,.004341,0.0*
1,1,.0001,-.02462,.004341*
20,1,.0001,-.02462,.004341,-.023492,.008551,0.0*
1,1,.0001,-.023492,.008551*
20,1,.0001,-.023492,.008551,-.021651,.0125,0.0*
1,1,.0001,-.021651,.0125*
20,1,.0001,-.021651,.0125,-.019151,.01607,0.0*
1,1,.0001,-.019151,.01607*
20,1,.0001,-.019151,.01607,-.01607,.019151,0.0*
1,1,.0001,-.01607,.019151*
20,1,.0001,-.01607,.019151,-.0125,.021651,0.0*
1,1,.0001,-.0125,.021651*
20,1,.0001,-.0125,.021651,-.008551,.023492,0.0*
1,1,.0001,-.008551,.023492*
20,1,.0001,-.008551,.023492,-.004341,.02462,0.0*
1,1,.0001,-.004341,.02462*
20,1,.0001,-.004341,.02462,0.0,.025,0.0*
1,1,.0001,0.0,.025*
20,1,.0001,0.0,.025,.004341,.02462,0.0*
1,1,.0001,.004341,.02462*
20,1,.0001,.004341,.02462,.008551,.023492,0.0*
1,1,.0001,.008551,.023492*
20,1,.0001,.008551,.023492,.0125,.021651,0.0*
1,1,.0001,.0125,.021651*
20,1,.0001,.0125,.021651,.01607,.019151,0.0*
1,1,.0001,.01607,.019151*
20,1,.0001,.01607,.019151,.019151,.01607,0.0*
1,1,.0001,.019151,.01607*
20,1,.0001,.019151,.01607,.021651,.0125,0.0*
1,1,.0001,.021651,.0125*
20,1,.0001,.021651,.0125,.023492,.008551,0.0*
1,1,.0001,.023492,.008551*
20,1,.0001,.023492,.008551,.02462,.004341,0.0*
1,1,.0001,.02462,.004341*
20,1,.0001,.02462,.004341,.025,0.0,0.0*
1,1,.0001,.025,0.0*
1,1,.0001,.0125,0.0*
20,1,.0001,.0125,0.0,-.0125,0.0,0.0*
1,1,.0001,-.0125,0.0*
1,1,.0001,0.0,.0125*
20,1,.0001,0.0,.0125,0.0,-.0125,0.0*
1,1,.0001,0.0,-.0125*
%
%ADD10MACRO10*%
%ADD11C,.0001*%
G75*
%LPD*%
G75*
G36*
G01X184000Y49061D02*
Y46892D01*
X186500D01*
Y-147169D01*
X184000D01*
Y-149338D01*
X199000D01*
Y-147169D01*
X196500D01*
Y46892D01*
X199000D01*
Y49061D01*
X184000D01*
G37*
G36*
G01X164000Y-149337D02*
Y-147168D01*
X224000D01*
Y-149337D01*
X164000D01*
G37*
G36*
G01Y46892D02*
Y49061D01*
X224000D01*
Y46892D01*
X164000D01*
G37*
G54D10*
X27260Y16740D03*
X27000Y54000D03*
Y62000D03*
X15459Y66554D03*
X28000Y96000D03*
X30000Y128000D03*
X18000Y135000D03*
X40000Y12000D03*
X59000Y14000D03*
X53740Y43740D03*
X62000Y35480D03*
X43000Y61000D03*
X62000Y44000D03*
X45000Y67000D03*
X81000Y10000D03*
X82000Y15000D03*
X82764Y69764D03*
X66000Y74000D03*
X71000Y103000D03*
X75000Y118000D03*
X69000Y137000D03*
X101000Y84000D03*
X119000Y72000D03*
X109000Y102000D03*
X100000Y150000D03*
X123000Y31000D03*
X152000Y47000D03*
X133000Y58000D03*
X151000Y36000D03*
X148740Y72740D03*
X129000Y67000D03*
X136000Y103000D03*
X141000Y97000D03*
X208950Y71500D03*
G54D11*
G01X0Y0D02*
Y160000D01*
X160000D01*
Y0D01*
X0D01*
G01X165913Y-159667D02*
Y-157167D01*
X166447D01*
X166660Y-157292D01*
X166820Y-157459D01*
X166953Y-157709D01*
X167060Y-158000D01*
X167087Y-158417D01*
X167060Y-158834D01*
X166953Y-159125D01*
X166820Y-159375D01*
X166660Y-159542D01*
X166447Y-159667D01*
X165913D01*
G01X169233D02*
X168167D01*
Y-157167D01*
X169233D01*
G01X168807Y-158375D02*
X168167D01*
G01X170340Y-159334D02*
X170553Y-159542D01*
X170793Y-159667D01*
X171007D01*
X171220Y-159542D01*
X171380Y-159334D01*
X171460Y-159042D01*
X171407Y-158750D01*
X171273Y-158500D01*
X171033Y-158334D01*
X170713Y-158250D01*
X170527Y-158084D01*
X170447Y-157792D01*
X170500Y-157500D01*
X170633Y-157292D01*
X170820Y-157167D01*
X171007D01*
X171193Y-157250D01*
X171353Y-157459D01*
G01X172780Y-157167D02*
X173420D01*
G01X173100D02*
Y-159667D01*
G01X172780D02*
X173420D01*
G01X175460Y-158417D02*
X175993D01*
Y-159167D01*
X175833Y-159417D01*
X175647Y-159584D01*
X175380Y-159667D01*
X175113Y-159584D01*
X174927Y-159417D01*
X174767Y-159167D01*
X174660Y-158875D01*
X174607Y-158542D01*
Y-158250D01*
X174660Y-158000D01*
X174767Y-157709D01*
X174927Y-157459D01*
X175087Y-157292D01*
X175300Y-157167D01*
X175487D01*
X175700Y-157250D01*
X175860Y-157417D01*
G01X176887Y-159667D02*
Y-157167D01*
X178113Y-159667D01*
Y-157167D01*
G01X182487Y-157375D02*
X182327Y-157250D01*
X182140Y-157167D01*
X181927D01*
X181687Y-157292D01*
X181500Y-157500D01*
X181367Y-157750D01*
X181260Y-158167D01*
X181233Y-158542D01*
X181287Y-158917D01*
X181367Y-159167D01*
X181527Y-159417D01*
X181713Y-159584D01*
X181900Y-159667D01*
X182087D01*
X182273Y-159584D01*
X182433Y-159459D01*
X182567Y-159292D01*
G01X183567Y-159667D02*
Y-157167D01*
X184233D01*
X184447Y-157292D01*
X184580Y-157459D01*
X184633Y-157792D01*
X184580Y-158125D01*
X184420Y-158334D01*
X184233Y-158459D01*
X183567D01*
G01X184233D02*
X184633Y-159667D01*
G01X186300D02*
X186087Y-159625D01*
X185900Y-159459D01*
X185740Y-159209D01*
X185633Y-158917D01*
X185580Y-158584D01*
Y-158250D01*
X185633Y-157917D01*
X185740Y-157625D01*
X185900Y-157375D01*
X186087Y-157209D01*
X186300Y-157167D01*
X186513Y-157209D01*
X186700Y-157375D01*
X186860Y-157625D01*
X186967Y-157917D01*
X187020Y-158250D01*
Y-158584D01*
X186967Y-158917D01*
X186860Y-159209D01*
X186700Y-159459D01*
X186513Y-159625D01*
X186300Y-159667D01*
G01X187940Y-159334D02*
X188153Y-159542D01*
X188393Y-159667D01*
X188607D01*
X188820Y-159542D01*
X188980Y-159334D01*
X189060Y-159042D01*
X189007Y-158750D01*
X188873Y-158500D01*
X188633Y-158334D01*
X188313Y-158250D01*
X188127Y-158084D01*
X188047Y-157792D01*
X188100Y-157500D01*
X188233Y-157292D01*
X188420Y-157167D01*
X188607D01*
X188793Y-157250D01*
X188953Y-157459D01*
G01X190140Y-159334D02*
X190353Y-159542D01*
X190593Y-159667D01*
X190807D01*
X191020Y-159542D01*
X191180Y-159334D01*
X191260Y-159042D01*
X191207Y-158750D01*
X191073Y-158500D01*
X190833Y-158334D01*
X190513Y-158250D01*
X190327Y-158084D01*
X190247Y-157792D01*
X190300Y-157500D01*
X190433Y-157292D01*
X190620Y-157167D01*
X190807D01*
X190993Y-157250D01*
X191153Y-157459D01*
G01X194540Y-159334D02*
X194753Y-159542D01*
X194993Y-159667D01*
X195207D01*
X195420Y-159542D01*
X195580Y-159334D01*
X195660Y-159042D01*
X195607Y-158750D01*
X195473Y-158500D01*
X195233Y-158334D01*
X194913Y-158250D01*
X194727Y-158084D01*
X194647Y-157792D01*
X194700Y-157500D01*
X194833Y-157292D01*
X195020Y-157167D01*
X195207D01*
X195393Y-157250D01*
X195553Y-157459D01*
G01X197833Y-159667D02*
X196767D01*
Y-157167D01*
X197833D01*
G01X197407Y-158375D02*
X196767D01*
G01X200087Y-157375D02*
X199927Y-157250D01*
X199740Y-157167D01*
X199527D01*
X199287Y-157292D01*
X199100Y-157500D01*
X198967Y-157750D01*
X198860Y-158167D01*
X198833Y-158542D01*
X198887Y-158917D01*
X198967Y-159167D01*
X199127Y-159417D01*
X199313Y-159584D01*
X199500Y-159667D01*
X199687D01*
X199873Y-159584D01*
X200033Y-159459D01*
X200167Y-159292D01*
G01X201700Y-157167D02*
Y-159667D01*
G01X201087Y-157167D02*
X202313D01*
G01X203580D02*
X204220D01*
G01X203900D02*
Y-159667D01*
G01X203580D02*
X204220D01*
G01X206100D02*
X205887Y-159625D01*
X205700Y-159459D01*
X205540Y-159209D01*
X205433Y-158917D01*
X205380Y-158584D01*
Y-158250D01*
X205433Y-157917D01*
X205540Y-157625D01*
X205700Y-157375D01*
X205887Y-157209D01*
X206100Y-157167D01*
X206313Y-157209D01*
X206500Y-157375D01*
X206660Y-157625D01*
X206767Y-157917D01*
X206820Y-158250D01*
Y-158584D01*
X206767Y-158917D01*
X206660Y-159209D01*
X206500Y-159459D01*
X206313Y-159625D01*
X206100Y-159667D01*
G01X207687D02*
Y-157167D01*
X208913Y-159667D01*
Y-157167D01*
G01X213287Y-157375D02*
X213127Y-157250D01*
X212940Y-157167D01*
X212727D01*
X212487Y-157292D01*
X212300Y-157500D01*
X212167Y-157750D01*
X212060Y-158167D01*
X212033Y-158542D01*
X212087Y-158917D01*
X212167Y-159167D01*
X212327Y-159417D01*
X212513Y-159584D01*
X212700Y-159667D01*
X212887D01*
X213073Y-159584D01*
X213233Y-159459D01*
X213367Y-159292D01*
G01X214340Y-159667D02*
Y-157167D01*
G01X215460D02*
Y-159667D01*
G01Y-158417D02*
X214340D01*
G01X216433Y-159667D02*
X217100Y-157167D01*
X217767Y-159667D01*
G01X217527Y-158792D02*
X216673D01*
G01X218767Y-159667D02*
Y-157167D01*
X219433D01*
X219647Y-157292D01*
X219780Y-157459D01*
X219833Y-157792D01*
X219780Y-158125D01*
X219620Y-158334D01*
X219433Y-158459D01*
X218767D01*
G01X219433D02*
X219833Y-159667D01*
G01X221500Y-157167D02*
Y-159667D01*
G01X220887Y-157167D02*
X222113D01*
G01X164600Y-160500D02*
X166200D01*
G01X166800D02*
X168400D01*
G01X169000D02*
X170600D01*
G01X171200D02*
X172800D01*
G01X173400D02*
X175000D01*
G01X175600D02*
X177200D01*
G01X177800D02*
X179400D01*
G01X180000D02*
X181600D01*
G01X182200D02*
X183800D01*
G01X184400D02*
X186000D01*
G01X186600D02*
X188200D01*
G01X188800D02*
X190400D01*
G01X191000D02*
X192600D01*
G01X193200D02*
X194800D01*
G01X195400D02*
X197000D01*
G01X197600D02*
X199200D01*
G01X199800D02*
X201400D01*
G01X202000D02*
X203600D01*
G01X204200D02*
X205800D01*
G01X206400D02*
X208000D01*
G01X208600D02*
X210200D01*
G01X210800D02*
X212400D01*
G01X213000D02*
X214600D01*
G01X215200D02*
X216800D01*
G01X217400D02*
X219000D01*
G01X219600D02*
X221200D01*
G01X221800D02*
X223400D01*
G01X170900Y-161667D02*
Y-164167D01*
G01X170287Y-161667D02*
X171513D01*
G01X173100Y-164167D02*
X172887Y-164125D01*
X172700Y-163959D01*
X172540Y-163709D01*
X172433Y-163417D01*
X172380Y-163084D01*
Y-162750D01*
X172433Y-162417D01*
X172540Y-162125D01*
X172700Y-161875D01*
X172887Y-161709D01*
X173100Y-161667D01*
X173313Y-161709D01*
X173500Y-161875D01*
X173660Y-162125D01*
X173767Y-162417D01*
X173820Y-162750D01*
Y-163084D01*
X173767Y-163417D01*
X173660Y-163709D01*
X173500Y-163959D01*
X173313Y-164125D01*
X173100Y-164167D01*
G01X175300Y-161667D02*
Y-164167D01*
G01X174687Y-161667D02*
X175913D01*
G01X176833Y-164167D02*
X177500Y-161667D01*
X178167Y-164167D01*
G01X177927Y-163292D02*
X177073D01*
G01X179167Y-161667D02*
Y-164167D01*
X180233D01*
G01X184100Y-161667D02*
Y-164167D01*
G01X183487Y-161667D02*
X184713D01*
G01X185740Y-164167D02*
Y-161667D01*
G01X186860D02*
Y-164167D01*
G01Y-162917D02*
X185740D01*
G01X188180Y-161667D02*
X188820D01*
G01X188500D02*
Y-164167D01*
G01X188180D02*
X188820D01*
G01X191287Y-161875D02*
X191127Y-161750D01*
X190940Y-161667D01*
X190727D01*
X190487Y-161792D01*
X190300Y-162000D01*
X190167Y-162250D01*
X190060Y-162667D01*
X190033Y-163042D01*
X190087Y-163417D01*
X190167Y-163667D01*
X190327Y-163917D01*
X190513Y-164084D01*
X190700Y-164167D01*
X190887D01*
X191073Y-164084D01*
X191233Y-163959D01*
X191367Y-163792D01*
G01X192313Y-164167D02*
Y-161667D01*
G01X193327D02*
X192313Y-163209D01*
G01X193487Y-164167D02*
X192767Y-162500D01*
G01X194487Y-164167D02*
Y-161667D01*
X195713Y-164167D01*
Y-161667D01*
G01X197833Y-164167D02*
X196767D01*
Y-161667D01*
X197833D01*
G01X197407Y-162875D02*
X196767D01*
G01X198940Y-163834D02*
X199153Y-164042D01*
X199393Y-164167D01*
X199607D01*
X199820Y-164042D01*
X199980Y-163834D01*
X200060Y-163542D01*
X200007Y-163250D01*
X199873Y-163000D01*
X199633Y-162834D01*
X199313Y-162750D01*
X199127Y-162584D01*
X199047Y-162292D01*
X199100Y-162000D01*
X199233Y-161792D01*
X199420Y-161667D01*
X199607D01*
X199793Y-161750D01*
X199953Y-161959D01*
G01X201140Y-163834D02*
X201353Y-164042D01*
X201593Y-164167D01*
X201807D01*
X202020Y-164042D01*
X202180Y-163834D01*
X202260Y-163542D01*
X202207Y-163250D01*
X202073Y-163000D01*
X201833Y-162834D01*
X201513Y-162750D01*
X201327Y-162584D01*
X201247Y-162292D01*
X201300Y-162000D01*
X201433Y-161792D01*
X201620Y-161667D01*
X201807D01*
X201993Y-161750D01*
X202153Y-161959D01*
G01X205593Y-163125D02*
X205780Y-162834D01*
X205940Y-162667D01*
X206153Y-162584D01*
X206340Y-162667D01*
X206473Y-162834D01*
X206580Y-163084D01*
X206607Y-163375D01*
X206580Y-163625D01*
X206473Y-163875D01*
X206313Y-164084D01*
X206127Y-164167D01*
X205913Y-164084D01*
X205727Y-163834D01*
X205620Y-163459D01*
X205593Y-163042D01*
X205647Y-162500D01*
X205727Y-162209D01*
X205860Y-161917D01*
X206047Y-161709D01*
X206233Y-161667D01*
X206420Y-161750D01*
X206553Y-161959D01*
G01X208620Y-164167D02*
Y-161667D01*
X207633Y-163459D01*
X208967D01*
G01X212007Y-164167D02*
Y-161667D01*
X212700Y-163750D01*
X213393Y-161667D01*
Y-164167D01*
G01X214580Y-161667D02*
X215220D01*
G01X214900D02*
Y-164167D01*
G01X214580D02*
X215220D01*
G01X216567Y-161667D02*
Y-164167D01*
X217633D01*
G01X164000Y-147168D02*
Y46892D01*
X224000D01*
Y-147168D01*
X164000D01*
G01Y59000D02*
Y159000D01*
X861500D01*
Y59000D01*
X164000D01*
G01X175005Y90250D02*
Y102750D01*
X180895D01*
G01X178725Y96708D02*
X175005D01*
G01X188490Y102750D02*
X192210D01*
G01X190350D02*
Y90250D01*
G01X188490D02*
X192210D01*
G01X203680Y96500D02*
X206780D01*
Y92750D01*
X205850Y91500D01*
X204765Y90667D01*
X203215Y90250D01*
X201665Y90667D01*
X200580Y91500D01*
X199650Y92750D01*
X199030Y94208D01*
X198720Y95875D01*
Y97333D01*
X199030Y98583D01*
X199650Y100042D01*
X200580Y101292D01*
X201510Y102125D01*
X202750Y102750D01*
X203835D01*
X205075Y102333D01*
X206005Y101500D01*
G01X211740Y102750D02*
Y93792D01*
X212360Y91916D01*
X213600Y90667D01*
X215150Y90250D01*
X216700Y90667D01*
X217940Y91916D01*
X218560Y93792D01*
Y102750D01*
G01X224450Y90250D02*
Y102750D01*
X228325D01*
X229565Y102125D01*
X230340Y101292D01*
X230650Y99625D01*
X230340Y97958D01*
X229410Y96917D01*
X228325Y96292D01*
X224450D01*
G01X228325D02*
X230650Y90250D01*
G01X243050D02*
X236850D01*
Y102750D01*
X243050D01*
G01X240570Y96708D02*
X236850D01*
G01X164000Y84000D02*
X861500D01*
G01X164000Y109000D02*
X861500D01*
G01X164000Y134000D02*
X861500D01*
G01X191500Y52361D02*
X189000D01*
X189500Y52041D01*
G01X191500D02*
Y52681D01*
G01X190667Y54214D02*
Y54908D01*
G01X189417Y56254D02*
X189167Y56414D01*
X189042Y56601D01*
X189000Y56814D01*
X189083Y57081D01*
X189292Y57268D01*
X189542Y57321D01*
X189792Y57294D01*
X190000Y57188D01*
X190417Y56654D01*
X190708Y56414D01*
X191125Y56254D01*
X191500Y56201D01*
Y57321D01*
G01X226467Y-148001D02*
Y-150501D01*
X227533D01*
G01X228693Y-148418D02*
X228853Y-148168D01*
X229040Y-148043D01*
X229253Y-148001D01*
X229520Y-148084D01*
X229707Y-148293D01*
X229760Y-148543D01*
X229733Y-148793D01*
X229627Y-149001D01*
X229093Y-149418D01*
X228853Y-149709D01*
X228693Y-150126D01*
X228640Y-150501D01*
X229760D01*
G01X233813Y-149168D02*
X233920Y-149043D01*
X234000Y-148834D01*
X234053Y-148543D01*
X234000Y-148293D01*
X233893Y-148126D01*
X233707Y-148001D01*
X232987D01*
Y-150501D01*
X233867D01*
X234053Y-150334D01*
X234160Y-150084D01*
X234213Y-149793D01*
X234160Y-149501D01*
X234000Y-149251D01*
X233813Y-149168D01*
X232987D01*
G01X235800Y-150501D02*
X235587Y-150459D01*
X235400Y-150293D01*
X235240Y-150043D01*
X235133Y-149751D01*
X235080Y-149418D01*
Y-149084D01*
X235133Y-148751D01*
X235240Y-148459D01*
X235400Y-148209D01*
X235587Y-148043D01*
X235800Y-148001D01*
X236013Y-148043D01*
X236200Y-148209D01*
X236360Y-148459D01*
X236467Y-148751D01*
X236520Y-149084D01*
Y-149418D01*
X236467Y-149751D01*
X236360Y-150043D01*
X236200Y-150293D01*
X236013Y-150459D01*
X235800Y-150501D01*
G01X238000Y-148001D02*
Y-150501D01*
G01X237387Y-148001D02*
X238613D01*
G01X240200D02*
Y-150501D01*
G01X239587Y-148001D02*
X240813D01*
G01X242400Y-150501D02*
X242187Y-150459D01*
X242000Y-150293D01*
X241840Y-150043D01*
X241733Y-149751D01*
X241680Y-149418D01*
Y-149084D01*
X241733Y-148751D01*
X241840Y-148459D01*
X242000Y-148209D01*
X242187Y-148043D01*
X242400Y-148001D01*
X242613Y-148043D01*
X242800Y-148209D01*
X242960Y-148459D01*
X243067Y-148751D01*
X243120Y-149084D01*
Y-149418D01*
X243067Y-149751D01*
X242960Y-150043D01*
X242800Y-150293D01*
X242613Y-150459D01*
X242400Y-150501D01*
G01X243907D02*
Y-148001D01*
X244600Y-150084D01*
X245293Y-148001D01*
Y-150501D01*
G01X249587Y-148209D02*
X249427Y-148084D01*
X249240Y-148001D01*
X249027D01*
X248787Y-148126D01*
X248600Y-148334D01*
X248467Y-148584D01*
X248360Y-149001D01*
X248333Y-149376D01*
X248387Y-149751D01*
X248467Y-150001D01*
X248627Y-150251D01*
X248813Y-150418D01*
X249000Y-150501D01*
X249187D01*
X249373Y-150418D01*
X249533Y-150293D01*
X249667Y-150126D01*
G01X251200Y-150501D02*
X250987Y-150459D01*
X250800Y-150293D01*
X250640Y-150043D01*
X250533Y-149751D01*
X250480Y-149418D01*
Y-149084D01*
X250533Y-148751D01*
X250640Y-148459D01*
X250800Y-148209D01*
X250987Y-148043D01*
X251200Y-148001D01*
X251413Y-148043D01*
X251600Y-148209D01*
X251760Y-148459D01*
X251867Y-148751D01*
X251920Y-149084D01*
Y-149418D01*
X251867Y-149751D01*
X251760Y-150043D01*
X251600Y-150293D01*
X251413Y-150459D01*
X251200Y-150501D01*
G01X252787D02*
Y-148001D01*
X254013Y-150501D01*
Y-148001D01*
G01X255013Y-150501D02*
Y-148001D01*
X255547D01*
X255760Y-148126D01*
X255920Y-148293D01*
X256053Y-148543D01*
X256160Y-148834D01*
X256187Y-149251D01*
X256160Y-149668D01*
X256053Y-149959D01*
X255920Y-150209D01*
X255760Y-150376D01*
X255547Y-150501D01*
X255013D01*
G01X257213Y-148001D02*
Y-149793D01*
X257320Y-150168D01*
X257533Y-150418D01*
X257800Y-150501D01*
X258067Y-150418D01*
X258280Y-150168D01*
X258387Y-149793D01*
Y-148001D01*
G01X260587Y-148209D02*
X260427Y-148084D01*
X260240Y-148001D01*
X260027D01*
X259787Y-148126D01*
X259600Y-148334D01*
X259467Y-148584D01*
X259360Y-149001D01*
X259333Y-149376D01*
X259387Y-149751D01*
X259467Y-150001D01*
X259627Y-150251D01*
X259813Y-150418D01*
X260000Y-150501D01*
X260187D01*
X260373Y-150418D01*
X260533Y-150293D01*
X260667Y-150126D01*
G01X262200Y-148001D02*
Y-150501D01*
G01X261587Y-148001D02*
X262813D01*
G01X264400Y-150501D02*
X264187Y-150459D01*
X264000Y-150293D01*
X263840Y-150043D01*
X263733Y-149751D01*
X263680Y-149418D01*
Y-149084D01*
X263733Y-148751D01*
X263840Y-148459D01*
X264000Y-148209D01*
X264187Y-148043D01*
X264400Y-148001D01*
X264613Y-148043D01*
X264800Y-148209D01*
X264960Y-148459D01*
X265067Y-148751D01*
X265120Y-149084D01*
Y-149418D01*
X265067Y-149751D01*
X264960Y-150043D01*
X264800Y-150293D01*
X264613Y-150459D01*
X264400Y-150501D01*
G01X266067D02*
Y-148001D01*
X266733D01*
X266947Y-148126D01*
X267080Y-148293D01*
X267133Y-148626D01*
X267080Y-148959D01*
X266920Y-149168D01*
X266733Y-149293D01*
X266067D01*
G01X266733D02*
X267133Y-150501D01*
G01X230813Y-153917D02*
X231987Y-152084D01*
G01X231400Y-151751D02*
Y-154251D01*
G01X231987Y-153917D02*
X230813Y-152084D01*
G01X230600Y-153001D02*
X232200D01*
G01X237440Y-153501D02*
X237653Y-153709D01*
X237893Y-153834D01*
X238107D01*
X238320Y-153709D01*
X238480Y-153501D01*
X238560Y-153209D01*
X238507Y-152917D01*
X238373Y-152667D01*
X238133Y-152501D01*
X237813Y-152417D01*
X237627Y-152251D01*
X237547Y-151959D01*
X237600Y-151667D01*
X237733Y-151459D01*
X237920Y-151334D01*
X238107D01*
X238293Y-151417D01*
X238453Y-151626D01*
G01X239613Y-151334D02*
Y-153126D01*
X239720Y-153501D01*
X239933Y-153751D01*
X240200Y-153834D01*
X240467Y-153751D01*
X240680Y-153501D01*
X240787Y-153126D01*
Y-151334D01*
G01X241867Y-153834D02*
Y-151334D01*
X242533D01*
X242747Y-151459D01*
X242880Y-151626D01*
X242933Y-151959D01*
X242880Y-152292D01*
X242720Y-152501D01*
X242533Y-152626D01*
X241867D01*
G01X242533D02*
X242933Y-153834D01*
G01X244093D02*
Y-151334D01*
X245107D01*
G01X244733Y-152542D02*
X244093D01*
G01X246133Y-153834D02*
X246800Y-151334D01*
X247467Y-153834D01*
G01X247227Y-152959D02*
X246373D01*
G01X249587Y-151542D02*
X249427Y-151417D01*
X249240Y-151334D01*
X249027D01*
X248787Y-151459D01*
X248600Y-151667D01*
X248467Y-151917D01*
X248360Y-152334D01*
X248333Y-152709D01*
X248387Y-153084D01*
X248467Y-153334D01*
X248627Y-153584D01*
X248813Y-153751D01*
X249000Y-153834D01*
X249187D01*
X249373Y-153751D01*
X249533Y-153626D01*
X249667Y-153459D01*
G01X251733Y-153834D02*
X250667D01*
Y-151334D01*
X251733D01*
G01X251307Y-152542D02*
X250667D01*
G01X230813Y-50221D02*
X231987Y-48388D01*
G01X231400Y-48055D02*
Y-50555D01*
G01X231987Y-50221D02*
X230813Y-48388D01*
G01X230600Y-49305D02*
X232200D01*
G01X237413Y-50138D02*
Y-47638D01*
X237947D01*
X238160Y-47763D01*
X238320Y-47930D01*
X238453Y-48180D01*
X238560Y-48471D01*
X238587Y-48888D01*
X238560Y-49305D01*
X238453Y-49596D01*
X238320Y-49846D01*
X238160Y-50013D01*
X237947Y-50138D01*
X237413D01*
G01X239880Y-47638D02*
X240520D01*
G01X240200D02*
Y-50138D01*
G01X239880D02*
X240520D01*
G01X242933D02*
X241867D01*
Y-47638D01*
X242933D01*
G01X242507Y-48846D02*
X241867D01*
G01X244067Y-47638D02*
Y-50138D01*
X245133D01*
G01X247333D02*
X246267D01*
Y-47638D01*
X247333D01*
G01X246907Y-48846D02*
X246267D01*
G01X249587Y-47846D02*
X249427Y-47721D01*
X249240Y-47638D01*
X249027D01*
X248787Y-47763D01*
X248600Y-47971D01*
X248467Y-48221D01*
X248360Y-48638D01*
X248333Y-49013D01*
X248387Y-49388D01*
X248467Y-49638D01*
X248627Y-49888D01*
X248813Y-50055D01*
X249000Y-50138D01*
X249187D01*
X249373Y-50055D01*
X249533Y-49930D01*
X249667Y-49763D01*
G01X251200Y-47638D02*
Y-50138D01*
G01X250587Y-47638D02*
X251813D01*
G01X252867Y-50138D02*
Y-47638D01*
X253533D01*
X253747Y-47763D01*
X253880Y-47930D01*
X253933Y-48263D01*
X253880Y-48596D01*
X253720Y-48805D01*
X253533Y-48930D01*
X252867D01*
G01X253533D02*
X253933Y-50138D01*
G01X255280Y-47638D02*
X255920D01*
G01X255600D02*
Y-50138D01*
G01X255280D02*
X255920D01*
G01X258387Y-47846D02*
X258227Y-47721D01*
X258040Y-47638D01*
X257827D01*
X257587Y-47763D01*
X257400Y-47971D01*
X257267Y-48221D01*
X257160Y-48638D01*
X257133Y-49013D01*
X257187Y-49388D01*
X257267Y-49638D01*
X257427Y-49888D01*
X257613Y-50055D01*
X257800Y-50138D01*
X257987D01*
X258173Y-50055D01*
X258333Y-49930D01*
X258467Y-49763D01*
G01X230813Y49811D02*
X231987Y51644D01*
G01X231400Y51977D02*
Y49477D01*
G01X231987Y49811D02*
X230813Y51644D01*
G01X230600Y50727D02*
X232200D01*
G01X237440Y50227D02*
X237653Y50019D01*
X237893Y49894D01*
X238107D01*
X238320Y50019D01*
X238480Y50227D01*
X238560Y50519D01*
X238507Y50811D01*
X238373Y51061D01*
X238133Y51227D01*
X237813Y51311D01*
X237627Y51477D01*
X237547Y51769D01*
X237600Y52061D01*
X237733Y52269D01*
X237920Y52394D01*
X238107D01*
X238293Y52311D01*
X238453Y52102D01*
G01X239613Y52394D02*
Y50602D01*
X239720Y50227D01*
X239933Y49977D01*
X240200Y49894D01*
X240467Y49977D01*
X240680Y50227D01*
X240787Y50602D01*
Y52394D01*
G01X241867Y49894D02*
Y52394D01*
X242533D01*
X242747Y52269D01*
X242880Y52102D01*
X242933Y51769D01*
X242880Y51436D01*
X242720Y51227D01*
X242533Y51102D01*
X241867D01*
G01X242533D02*
X242933Y49894D01*
G01X244093D02*
Y52394D01*
X245107D01*
G01X244733Y51186D02*
X244093D01*
G01X246133Y49894D02*
X246800Y52394D01*
X247467Y49894D01*
G01X247227Y50769D02*
X246373D01*
G01X249587Y52186D02*
X249427Y52311D01*
X249240Y52394D01*
X249027D01*
X248787Y52269D01*
X248600Y52061D01*
X248467Y51811D01*
X248360Y51394D01*
X248333Y51019D01*
X248387Y50644D01*
X248467Y50394D01*
X248627Y50144D01*
X248813Y49977D01*
X249000Y49894D01*
X249187D01*
X249373Y49977D01*
X249533Y50102D01*
X249667Y50269D01*
G01X251733Y49894D02*
X250667D01*
Y52394D01*
X251733D01*
G01X251307Y51186D02*
X250667D01*
G01X226467Y48228D02*
Y45728D01*
X227533D01*
G01X229200D02*
Y48228D01*
X228880Y47728D01*
G01Y45728D02*
X229520D01*
G01X233600Y48228D02*
Y45728D01*
G01X232987Y48228D02*
X234213D01*
G01X235800Y45728D02*
X235587Y45770D01*
X235400Y45936D01*
X235240Y46186D01*
X235133Y46478D01*
X235080Y46811D01*
Y47145D01*
X235133Y47478D01*
X235240Y47770D01*
X235400Y48020D01*
X235587Y48186D01*
X235800Y48228D01*
X236013Y48186D01*
X236200Y48020D01*
X236360Y47770D01*
X236467Y47478D01*
X236520Y47145D01*
Y46811D01*
X236467Y46478D01*
X236360Y46186D01*
X236200Y45936D01*
X236013Y45770D01*
X235800Y45728D01*
G01X237467D02*
Y48228D01*
X238107D01*
X238320Y48103D01*
X238480Y47811D01*
X238533Y47478D01*
X238480Y47145D01*
X238347Y46895D01*
X238107Y46770D01*
X237467D01*
G01X242987Y48020D02*
X242827Y48145D01*
X242640Y48228D01*
X242427D01*
X242187Y48103D01*
X242000Y47895D01*
X241867Y47645D01*
X241760Y47228D01*
X241733Y46853D01*
X241787Y46478D01*
X241867Y46228D01*
X242027Y45978D01*
X242213Y45811D01*
X242400Y45728D01*
X242587D01*
X242773Y45811D01*
X242933Y45936D01*
X243067Y46103D01*
G01X244600Y45728D02*
X244387Y45770D01*
X244200Y45936D01*
X244040Y46186D01*
X243933Y46478D01*
X243880Y46811D01*
Y47145D01*
X243933Y47478D01*
X244040Y47770D01*
X244200Y48020D01*
X244387Y48186D01*
X244600Y48228D01*
X244813Y48186D01*
X245000Y48020D01*
X245160Y47770D01*
X245267Y47478D01*
X245320Y47145D01*
Y46811D01*
X245267Y46478D01*
X245160Y46186D01*
X245000Y45936D01*
X244813Y45770D01*
X244600Y45728D01*
G01X246187D02*
Y48228D01*
X247413Y45728D01*
Y48228D01*
G01X248413Y45728D02*
Y48228D01*
X248947D01*
X249160Y48103D01*
X249320Y47936D01*
X249453Y47686D01*
X249560Y47395D01*
X249587Y46978D01*
X249560Y46561D01*
X249453Y46270D01*
X249320Y46020D01*
X249160Y45853D01*
X248947Y45728D01*
X248413D01*
G01X250613Y48228D02*
Y46436D01*
X250720Y46061D01*
X250933Y45811D01*
X251200Y45728D01*
X251467Y45811D01*
X251680Y46061D01*
X251787Y46436D01*
Y48228D01*
G01X253987Y48020D02*
X253827Y48145D01*
X253640Y48228D01*
X253427D01*
X253187Y48103D01*
X253000Y47895D01*
X252867Y47645D01*
X252760Y47228D01*
X252733Y46853D01*
X252787Y46478D01*
X252867Y46228D01*
X253027Y45978D01*
X253213Y45811D01*
X253400Y45728D01*
X253587D01*
X253773Y45811D01*
X253933Y45936D01*
X254067Y46103D01*
G01X255600Y48228D02*
Y45728D01*
G01X254987Y48228D02*
X256213D01*
G01X257800Y45728D02*
X257587Y45770D01*
X257400Y45936D01*
X257240Y46186D01*
X257133Y46478D01*
X257080Y46811D01*
Y47145D01*
X257133Y47478D01*
X257240Y47770D01*
X257400Y48020D01*
X257587Y48186D01*
X257800Y48228D01*
X258013Y48186D01*
X258200Y48020D01*
X258360Y47770D01*
X258467Y47478D01*
X258520Y47145D01*
Y46811D01*
X258467Y46478D01*
X258360Y46186D01*
X258200Y45936D01*
X258013Y45770D01*
X257800Y45728D01*
G01X259467D02*
Y48228D01*
X260133D01*
X260347Y48103D01*
X260480Y47936D01*
X260533Y47603D01*
X260480Y47270D01*
X260320Y47061D01*
X260133Y46936D01*
X259467D01*
G01X260133D02*
X260533Y45728D01*
G01X253900Y109000D02*
Y59000D01*
G01X277305Y90250D02*
Y102750D01*
X283195D01*
G01X281025Y96708D02*
X277305D01*
G01X290790Y102750D02*
X294510D01*
G01X292650D02*
Y90250D01*
G01X290790D02*
X294510D01*
G01X301485D02*
Y102750D01*
X308615Y90250D01*
Y102750D01*
G01X315590D02*
X319310D01*
G01X317450D02*
Y90250D01*
G01X315590D02*
X319310D01*
G01X326595Y91916D02*
X327835Y90875D01*
X329230Y90250D01*
X330470D01*
X331710Y90875D01*
X332640Y91916D01*
X333105Y93375D01*
X332795Y94833D01*
X332020Y96083D01*
X330625Y96917D01*
X328765Y97333D01*
X327680Y98167D01*
X327215Y99625D01*
X327525Y101083D01*
X328300Y102125D01*
X329385Y102750D01*
X330470D01*
X331555Y102333D01*
X332485Y101292D01*
G01X338995Y90250D02*
Y102750D01*
G01X345505D02*
Y90250D01*
G01Y96500D02*
X338995D01*
G01X357750Y90250D02*
X351550D01*
Y102750D01*
X357750D01*
G01X355270Y96708D02*
X351550D01*
G01X363640Y90250D02*
Y102750D01*
X366740D01*
X367980Y102125D01*
X368910Y101292D01*
X369685Y100042D01*
X370305Y98583D01*
X370460Y96500D01*
X370305Y94417D01*
X369685Y92958D01*
X368910Y91708D01*
X367980Y90875D01*
X366740Y90250D01*
X363640D01*
G01X374800Y86083D02*
X384100D01*
G01X388595Y91916D02*
X389835Y90875D01*
X391230Y90250D01*
X392470D01*
X393710Y90875D01*
X394640Y91916D01*
X395105Y93375D01*
X394795Y94833D01*
X394020Y96083D01*
X392625Y96917D01*
X390765Y97333D01*
X389680Y98167D01*
X389215Y99625D01*
X389525Y101083D01*
X390300Y102125D01*
X391385Y102750D01*
X392470D01*
X393555Y102333D01*
X394485Y101292D01*
G01X402390Y102750D02*
X406110D01*
G01X404250D02*
Y90250D01*
G01X402390D02*
X406110D01*
G01X413705Y102750D02*
X419595D01*
X413705Y90250D01*
X419595D01*
G01X432150D02*
X425950D01*
Y102750D01*
X432150D01*
G01X429670Y96708D02*
X425950D01*
G01X336050Y65250D02*
Y77750D01*
X334190Y75250D01*
G01Y65250D02*
X337910D01*
G01X345505Y70458D02*
X346590Y71917D01*
X347520Y72750D01*
X348760Y73167D01*
X349845Y72750D01*
X350620Y71917D01*
X351240Y70667D01*
X351395Y69208D01*
X351240Y67958D01*
X350620Y66708D01*
X349690Y65667D01*
X348605Y65250D01*
X347365Y65667D01*
X346280Y66916D01*
X345660Y68792D01*
X345505Y70875D01*
X345815Y73583D01*
X346280Y75042D01*
X347055Y76500D01*
X348140Y77542D01*
X349225Y77750D01*
X350310Y77333D01*
X351085Y76292D01*
G01X360850Y64833D02*
X360540Y65042D01*
Y65458D01*
X360850Y65667D01*
X361160Y65458D01*
Y65042D01*
X360850Y64833D01*
G01X373250Y77750D02*
X372010Y77333D01*
X371080Y76292D01*
X370460Y75042D01*
X369995Y73375D01*
X369840Y71500D01*
X369995Y69625D01*
X370460Y67958D01*
X371080Y66708D01*
X372010Y65667D01*
X373250Y65250D01*
X374490Y65667D01*
X375420Y66708D01*
X376040Y67958D01*
X376505Y69625D01*
X376660Y71500D01*
X376505Y73375D01*
X376040Y75042D01*
X375420Y76292D01*
X374490Y77333D01*
X373250Y77750D01*
G01X354340Y140250D02*
Y152750D01*
X357440D01*
X358680Y152125D01*
X359610Y151292D01*
X360385Y150042D01*
X361005Y148583D01*
X361160Y146500D01*
X361005Y144417D01*
X360385Y142958D01*
X359610Y141708D01*
X358680Y140875D01*
X357440Y140250D01*
X354340D01*
G01X367050D02*
Y152750D01*
X370925D01*
X372165Y152125D01*
X372940Y151292D01*
X373250Y149625D01*
X372940Y147958D01*
X372010Y146917D01*
X370925Y146292D01*
X367050D01*
G01X370925D02*
X373250Y140250D01*
G01X380690Y152750D02*
X384410D01*
G01X382550D02*
Y140250D01*
G01X380690D02*
X384410D01*
G01X391850Y152750D02*
Y140250D01*
X398050D01*
G01X404250Y152750D02*
Y140250D01*
X410450D01*
G01X435560Y151708D02*
X434630Y152333D01*
X433545Y152750D01*
X432305D01*
X430910Y152125D01*
X429825Y151083D01*
X429050Y149833D01*
X428430Y147750D01*
X428275Y145875D01*
X428585Y144000D01*
X429050Y142750D01*
X429980Y141500D01*
X431065Y140667D01*
X432150Y140250D01*
X433235D01*
X434320Y140667D01*
X435250Y141291D01*
X436025Y142125D01*
G01X441295Y140250D02*
Y152750D01*
G01X447805D02*
Y140250D01*
G01Y146500D02*
X441295D01*
G01X453075Y140250D02*
X456950Y152750D01*
X460825Y140250D01*
G01X459430Y144625D02*
X454470D01*
G01X466250Y140250D02*
Y152750D01*
X470125D01*
X471365Y152125D01*
X472140Y151292D01*
X472450Y149625D01*
X472140Y147958D01*
X471210Y146917D01*
X470125Y146292D01*
X466250D01*
G01X470125D02*
X472450Y140250D01*
G01X481750Y152750D02*
Y140250D01*
G01X478185Y152750D02*
X485315D01*
G01X494150Y139833D02*
X493840Y140042D01*
Y140458D01*
X494150Y140667D01*
X494460Y140458D01*
Y140042D01*
X494150Y139833D01*
G01Y145458D02*
X493840Y145667D01*
Y146083D01*
X494150Y146292D01*
X494460Y146083D01*
Y145667D01*
X494150Y145458D01*
G01X518950Y152750D02*
Y140250D01*
G01X515385Y152750D02*
X522515D01*
G01X531350Y140250D02*
X530110Y140458D01*
X529025Y141291D01*
X528095Y142542D01*
X527475Y144000D01*
X527165Y145667D01*
Y147333D01*
X527475Y149000D01*
X528095Y150458D01*
X529025Y151708D01*
X530110Y152542D01*
X531350Y152750D01*
X532590Y152542D01*
X533675Y151708D01*
X534605Y150458D01*
X535225Y149000D01*
X535535Y147333D01*
Y145667D01*
X535225Y144000D01*
X534605Y142542D01*
X533675Y141291D01*
X532590Y140458D01*
X531350Y140250D01*
G01X540650D02*
Y152750D01*
X544370D01*
X545610Y152125D01*
X546540Y150667D01*
X546850Y149000D01*
X546540Y147333D01*
X545765Y146083D01*
X544370Y145458D01*
X540650D01*
G01X568550Y152750D02*
Y140250D01*
G01X566380Y148583D02*
X570720D01*
G01X580950Y140250D02*
X580020Y140458D01*
X579090Y141291D01*
X578470Y142750D01*
X578160Y144417D01*
X578470Y146083D01*
X579090Y147542D01*
X580020Y148375D01*
X580950Y148583D01*
X581880Y148375D01*
X582810Y147542D01*
X583430Y146083D01*
X583585Y144417D01*
X583430Y142750D01*
X582810Y141291D01*
X581880Y140458D01*
X580950Y140250D01*
G01X606990Y146917D02*
X607610Y147542D01*
X608075Y148583D01*
X608385Y150042D01*
X608075Y151292D01*
X607455Y152125D01*
X606370Y152750D01*
X602185D01*
Y140250D01*
X607300D01*
X608385Y141083D01*
X609005Y142333D01*
X609315Y143792D01*
X609005Y145250D01*
X608075Y146500D01*
X606990Y146917D01*
X602185D01*
G01X618150Y140250D02*
X616910Y140458D01*
X615825Y141291D01*
X614895Y142542D01*
X614275Y144000D01*
X613965Y145667D01*
Y147333D01*
X614275Y149000D01*
X614895Y150458D01*
X615825Y151708D01*
X616910Y152542D01*
X618150Y152750D01*
X619390Y152542D01*
X620475Y151708D01*
X621405Y150458D01*
X622025Y149000D01*
X622335Y147333D01*
Y145667D01*
X622025Y144000D01*
X621405Y142542D01*
X620475Y141291D01*
X619390Y140458D01*
X618150Y140250D01*
G01X630550Y152750D02*
Y140250D01*
G01X626985Y152750D02*
X634115D01*
G01X642950D02*
Y140250D01*
G01X639385Y152750D02*
X646515D01*
G01X655350Y140250D02*
X654110Y140458D01*
X653025Y141291D01*
X652095Y142542D01*
X651475Y144000D01*
X651165Y145667D01*
Y147333D01*
X651475Y149000D01*
X652095Y150458D01*
X653025Y151708D01*
X654110Y152542D01*
X655350Y152750D01*
X656590Y152542D01*
X657675Y151708D01*
X658605Y150458D01*
X659225Y149000D01*
X659535Y147333D01*
Y145667D01*
X659225Y144000D01*
X658605Y142542D01*
X657675Y141291D01*
X656590Y140458D01*
X655350Y140250D01*
G01X663720D02*
Y152750D01*
X667750Y142333D01*
X671780Y152750D01*
Y140250D01*
G01X384875Y115250D02*
X388750Y127750D01*
X392625Y115250D01*
G01X391230Y119625D02*
X386270D01*
G01X398050Y127750D02*
Y115250D01*
X404250D01*
G01X410450Y127750D02*
Y115250D01*
X416650D01*
G01X434940Y127750D02*
Y118792D01*
X435560Y116916D01*
X436800Y115667D01*
X438350Y115250D01*
X439900Y115667D01*
X441140Y116916D01*
X441760Y118792D01*
Y127750D01*
G01X447185Y115250D02*
Y127750D01*
X454315Y115250D01*
Y127750D01*
G01X461290D02*
X465010D01*
G01X463150D02*
Y115250D01*
G01X461290D02*
X465010D01*
G01X475550Y127750D02*
Y115250D01*
G01X471985Y127750D02*
X479115D01*
G01X484695Y116916D02*
X485935Y115875D01*
X487330Y115250D01*
X488570D01*
X489810Y115875D01*
X490740Y116916D01*
X491205Y118375D01*
X490895Y119833D01*
X490120Y121083D01*
X488725Y121917D01*
X486865Y122333D01*
X485780Y123167D01*
X485315Y124625D01*
X485625Y126083D01*
X486400Y127125D01*
X487485Y127750D01*
X488570D01*
X489655Y127333D01*
X490585Y126292D01*
G01X508875Y115250D02*
X512750Y127750D01*
X516625Y115250D01*
G01X515230Y119625D02*
X510270D01*
G01X522050Y115250D02*
Y127750D01*
X525925D01*
X527165Y127125D01*
X527940Y126292D01*
X528250Y124625D01*
X527940Y122958D01*
X527010Y121917D01*
X525925Y121292D01*
X522050D01*
G01X525925D02*
X528250Y115250D01*
G01X540650D02*
X534450D01*
Y127750D01*
X540650D01*
G01X538170Y121708D02*
X534450D01*
G01X560490Y127750D02*
X564210D01*
G01X562350D02*
Y115250D01*
G01X560490D02*
X564210D01*
G01X571185D02*
Y127750D01*
X578315Y115250D01*
Y127750D01*
G01X595520Y115250D02*
Y127750D01*
X599550Y117333D01*
X603580Y127750D01*
Y115250D01*
G01X610090Y127750D02*
X613810D01*
G01X611950D02*
Y115250D01*
G01X610090D02*
X613810D01*
G01X621250Y127750D02*
Y115250D01*
X627450D01*
G01X633495Y116916D02*
X634735Y115875D01*
X636130Y115250D01*
X637370D01*
X638610Y115875D01*
X639540Y116916D01*
X640005Y118375D01*
X639695Y119833D01*
X638920Y121083D01*
X637525Y121917D01*
X635665Y122333D01*
X634580Y123167D01*
X634115Y124625D01*
X634425Y126083D01*
X635200Y127125D01*
X636285Y127750D01*
X637370D01*
X638455Y127333D01*
X639385Y126292D01*
G01X455400Y109000D02*
Y59000D01*
G01X484540Y90250D02*
Y102750D01*
X487640D01*
X488880Y102125D01*
X489810Y101292D01*
X490585Y100042D01*
X491205Y98583D01*
X491360Y96500D01*
X491205Y94417D01*
X490585Y92958D01*
X489810Y91708D01*
X488880Y90875D01*
X487640Y90250D01*
X484540D01*
G01X497250D02*
Y102750D01*
X501125D01*
X502365Y102125D01*
X503140Y101292D01*
X503450Y99625D01*
X503140Y97958D01*
X502210Y96917D01*
X501125Y96292D01*
X497250D01*
G01X501125D02*
X503450Y90250D01*
G01X510890Y102750D02*
X514610D01*
G01X512750D02*
Y90250D01*
G01X510890D02*
X514610D01*
G01X522050Y102750D02*
Y90250D01*
X528250D01*
G01X534450Y102750D02*
Y90250D01*
X540650D01*
G01X553050D02*
X546850D01*
Y102750D01*
X553050D01*
G01X550570Y96708D02*
X546850D01*
G01X558940Y90250D02*
Y102750D01*
X562040D01*
X563280Y102125D01*
X564210Y101292D01*
X564985Y100042D01*
X565605Y98583D01*
X565760Y96500D01*
X565605Y94417D01*
X564985Y92958D01*
X564210Y91708D01*
X563280Y90875D01*
X562040Y90250D01*
X558940D01*
G01X570100Y86083D02*
X579400D01*
G01X583895Y91916D02*
X585135Y90875D01*
X586530Y90250D01*
X587770D01*
X589010Y90875D01*
X589940Y91916D01*
X590405Y93375D01*
X590095Y94833D01*
X589320Y96083D01*
X587925Y96917D01*
X586065Y97333D01*
X584980Y98167D01*
X584515Y99625D01*
X584825Y101083D01*
X585600Y102125D01*
X586685Y102750D01*
X587770D01*
X588855Y102333D01*
X589785Y101292D01*
G01X597690Y102750D02*
X601410D01*
G01X599550D02*
Y90250D01*
G01X597690D02*
X601410D01*
G01X609005Y102750D02*
X614895D01*
X609005Y90250D01*
X614895D01*
G01X627450D02*
X621250D01*
Y102750D01*
X627450D01*
G01X624970Y96708D02*
X621250D01*
G01X554135Y69417D02*
X558165D01*
G01X656900Y109000D02*
Y59000D01*
G01X686350Y90250D02*
Y102750D01*
X690070D01*
X691310Y102125D01*
X692240Y100667D01*
X692550Y99000D01*
X692240Y97333D01*
X691465Y96083D01*
X690070Y95458D01*
X686350D01*
G01X698750Y102750D02*
Y90250D01*
X704950D01*
G01X710375D02*
X714250Y102750D01*
X718125Y90250D01*
G01X716730Y94625D02*
X711770D01*
G01X726650Y102750D02*
Y90250D01*
G01X723085Y102750D02*
X730215D01*
G01X742150Y90250D02*
X735950D01*
Y102750D01*
X742150D01*
G01X739670Y96708D02*
X735950D01*
G01X748040Y90250D02*
Y102750D01*
X751140D01*
X752380Y102125D01*
X753310Y101292D01*
X754085Y100042D01*
X754705Y98583D01*
X754860Y96500D01*
X754705Y94417D01*
X754085Y92958D01*
X753310Y91708D01*
X752380Y90875D01*
X751140Y90250D01*
X748040D01*
G01X686350Y65250D02*
Y77750D01*
X690070D01*
X691310Y77125D01*
X692240Y75667D01*
X692550Y74000D01*
X692240Y72333D01*
X691465Y71083D01*
X690070Y70458D01*
X686350D01*
G01X698750Y77750D02*
Y65250D01*
X704950D01*
G01X710375D02*
X714250Y77750D01*
X718125Y65250D01*
G01X716730Y69625D02*
X711770D01*
G01X726650Y77750D02*
Y65250D01*
G01X723085Y77750D02*
X730215D01*
G01X742150Y65250D02*
X735950D01*
Y77750D01*
X742150D01*
G01X739670Y71708D02*
X735950D01*
G01X748040Y65250D02*
Y77750D01*
X751140D01*
X752380Y77125D01*
X753310Y76292D01*
X754085Y75042D01*
X754705Y73583D01*
X754860Y71500D01*
X754705Y69417D01*
X754085Y67958D01*
X753310Y66708D01*
X752380Y65875D01*
X751140Y65250D01*
X748040D01*
G01X784000Y109000D02*
Y59000D01*
G01X810350Y90250D02*
X809110Y90458D01*
X808025Y91291D01*
X807095Y92542D01*
X806475Y94000D01*
X806165Y95667D01*
Y97333D01*
X806475Y99000D01*
X807095Y100458D01*
X808025Y101708D01*
X809110Y102542D01*
X810350Y102750D01*
X811590Y102542D01*
X812675Y101708D01*
X813605Y100458D01*
X814225Y99000D01*
X814535Y97333D01*
Y95667D01*
X814225Y94000D01*
X813605Y92542D01*
X812675Y91291D01*
X811590Y90458D01*
X810350Y90250D01*
G01X811590Y93583D02*
X813450Y90250D01*
G01X822750Y102750D02*
Y90250D01*
G01X819185Y102750D02*
X826315D01*
G01X835150Y90250D02*
Y95875D01*
X832050Y102750D01*
G01X838250D02*
X835150Y95875D01*
G01X813140Y67750D02*
X814070Y66291D01*
X815310Y65458D01*
X816705Y65250D01*
X817945Y65458D01*
X819185Y66500D01*
X819960Y67750D01*
X820115Y69000D01*
X819805Y70458D01*
X818720Y71500D01*
X817635Y71917D01*
X816240D01*
G01X817635D02*
X818565Y72542D01*
X819340Y73583D01*
X819650Y74833D01*
X819340Y76083D01*
X818565Y77125D01*
X817170Y77750D01*
X815775Y77542D01*
X814380Y76708D01*
G01X825540Y67750D02*
X826470Y66291D01*
X827710Y65458D01*
X829105Y65250D01*
X830345Y65458D01*
X831585Y66500D01*
X832360Y67750D01*
X832515Y69000D01*
X832205Y70458D01*
X831120Y71500D01*
X830035Y71917D01*
X828640D01*
G01X830035D02*
X830965Y72542D01*
X831740Y73583D01*
X832050Y74833D01*
X831740Y76083D01*
X830965Y77125D01*
X829570Y77750D01*
X828175Y77542D01*
X826780Y76708D01*
M02*
