G04 ================== begin FILE IDENTIFICATION RECORD ==================*
G04 Layout Name:  PROIECT1_ENACHEVICTOR.brd*
G04 Film Name:    BOTTOM*
G04 File Format:  Gerber RS274X*
G04 File Origin:  Cadence Allegro 24.1-S001*
G04 Origin Date:  Sat Dec  7 16:34:57 2024*
G04 *
G04 Layer:  ETCH/BOTTOM*
G04 Layer:  PIN/BOTTOM*
G04 Layer:  VIA CLASS/BOTTOM*
G04 *
G04 Offset:    (0.00 0.00)*
G04 Mirror:    No*
G04 Mode:      Positive*
G04 Rotation:  0*
G04 FullContactRelief:  No*
G04 UndefLineWidth:     0.10*
G04 ================== end FILE IDENTIFICATION RECORD ====================*
%FSLAX25Y25*MOIN*%
%IR0*IPPOS*OFA0.00000B0.00000*MIA0B0*SFA1.00000B1.00000*%
%ADD10C,.034*%
%ADD11C,.02*%
%ADD12C,.016*%
G75*
%LPD*%
G75*
G54D10*
X27260Y16740D03*
X27000Y54000D03*
Y62000D03*
X15459Y66554D03*
X28000Y96000D03*
X30000Y128000D03*
X18000Y135000D03*
X40000Y12000D03*
X59000Y14000D03*
X53740Y43740D03*
X62000Y35480D03*
X43000Y61000D03*
X62000Y44000D03*
X45000Y67000D03*
X81000Y10000D03*
X82000Y15000D03*
X82764Y69764D03*
X66000Y74000D03*
X71000Y103000D03*
X75000Y118000D03*
X69000Y137000D03*
X101000Y84000D03*
X119000Y72000D03*
X109000Y102000D03*
X100000Y150000D03*
X123000Y31000D03*
X152000Y47000D03*
X133000Y58000D03*
X151000Y36000D03*
X148740Y72740D03*
X129000Y67000D03*
X136000Y103000D03*
X141000Y97000D03*
G54D11*
G01X27000Y54000D02*
Y50000D01*
X27721Y49279D01*
Y23000D01*
X23160Y18439D01*
Y15041D01*
X26201Y12000D01*
X40000D01*
G01X30000Y128000D02*
X25000D01*
X18000Y135000D01*
G01X30000Y128000D02*
X117000D01*
X136000Y109000D01*
Y103000D01*
G01X40000Y12000D02*
X53192D01*
X55292Y9900D01*
X60699D01*
X60999Y10200D01*
X63734D01*
X72534Y19000D01*
X80201D01*
X80301Y19100D01*
X83699D01*
X86100Y16699D01*
Y11900D01*
X84200Y10000D01*
X81000D01*
G01X53740Y43740D02*
Y46940D01*
X70800Y64000D01*
X72000D01*
G01X53740Y43740D02*
X62000Y35480D01*
G01X82764Y69764D02*
X102764D01*
X136000Y103000D01*
G01X129000Y67000D02*
X124585Y62585D01*
X73415D01*
X72000Y64000D01*
G01D02*
Y70000D01*
X104000Y102000D01*
X109000D01*
G54D12*
G01X27260Y16740D02*
X56224D01*
X57384Y17900D01*
X60666D01*
X61511Y18745D01*
X62976D01*
X66811Y22580D01*
X67345D01*
X70965Y26200D01*
X86569D01*
X90200Y22569D01*
Y21368D01*
X92568Y19000D01*
X126000D01*
X132000Y25000D01*
Y47000D01*
G01X28000Y96000D02*
X19960Y87960D01*
Y70719D01*
X19141Y69900D01*
X17629D01*
X17075Y70454D01*
X13843D01*
X11559Y68170D01*
Y66075D01*
X11100Y65616D01*
Y62384D01*
X11999Y61485D01*
Y19001D01*
X24300Y6700D01*
X62025D01*
X62325Y7000D01*
X68000D01*
X69000Y6000D01*
X78000Y15000D01*
X82000D01*
G01X123000Y31000D02*
X114000Y22000D01*
X95012D01*
X87812Y29200D01*
X69722D01*
X66102Y25580D01*
X65568D01*
X61988Y22000D01*
X46000D01*
X31000Y37000D01*
Y93484D01*
X31900Y94384D01*
Y97616D01*
X31000Y98516D01*
Y107000D01*
X7000Y131000D01*
Y137000D01*
X12000Y142000D01*
X64000D01*
X69000Y137000D01*
G01X27000Y62000D02*
X20013D01*
X15459Y66554D01*
G01X132000Y47000D02*
X130000D01*
X108000Y25000D01*
X96255D01*
X89055Y32200D01*
X68479D01*
X64859Y28580D01*
X59141D01*
X42000Y45721D01*
Y57000D01*
X43000Y58000D01*
Y61000D01*
G01X59000Y14000D02*
X62474D01*
X68054Y19580D01*
X68588D01*
X71208Y22200D01*
X78875D01*
X78975Y22300D01*
X81057D01*
X81957Y23200D01*
X85326D01*
X87200Y21326D01*
Y20125D01*
X91325Y16000D01*
X131000D01*
X151000Y36000D01*
G01X66000Y74000D02*
Y71000D01*
X48000Y53000D01*
Y43964D01*
X60384Y31580D01*
X63616D01*
X71036Y39000D01*
X114000D01*
X133000Y58000D01*
G01X45000Y67000D02*
X54000D01*
X62100Y75100D01*
Y75616D01*
X64384Y77900D01*
X64900D01*
X99000Y112000D01*
X113000D01*
X118000Y107000D01*
Y101000D01*
X101000Y84000D01*
G01X125500Y81500D02*
X137000Y70000D01*
Y69484D01*
X111516Y44000D01*
X62000D01*
G01X71000Y103000D02*
Y114000D01*
X75000Y118000D01*
G01X119000Y72000D02*
X123000Y76000D01*
Y79000D01*
X125500Y81500D01*
G01X100000Y150000D02*
X120000D01*
X148740Y121260D01*
Y72740D01*
G01X152000Y47000D02*
X132000D01*
G01X125500Y81500D02*
X141000Y97000D01*
M02*
