G04 ================== begin FILE IDENTIFICATION RECORD ==================*
G04 Layout Name:  PROIECT1_ENACHEVICTOR.brd*
G04 Film Name:    SPTOP*
G04 File Format:  Gerber RS274X*
G04 File Origin:  Cadence Allegro 24.1-S001*
G04 Origin Date:  Sat Dec  7 16:34:57 2024*
G04 *
G04 Layer:  VIA CLASS/PASTEMASK_TOP*
G04 Layer:  PIN/PASTEMASK_TOP*
G04 Layer:  PACKAGE GEOMETRY/PASTEMASK_TOP*
G04 Layer:  DRC ERROR CLASS/PASTEMASK_TOP*
G04 *
G04 Offset:    (0.00 0.00)*
G04 Mirror:    No*
G04 Mode:      Positive*
G04 Rotation:  0*
G04 FullContactRelief:  No*
G04 UndefLineWidth:     0.10*
G04 ================== end FILE IDENTIFICATION RECORD ====================*
%FSLAX25Y25*MOIN*%
%IR0*IPPOS*OFA0.00000B0.00000*MIA0B0*SFA1.00000B1.00000*%
%ADD19R,.112X.04*%
%ADD12R,.0684X.108*%
%ADD17R,.05012X.05012*%
%ADD16R,.235X.215*%
%ADD18R,.08X.052*%
%ADD13R,.059X.041*%
%ADD14R,.039X.026*%
%ADD10R,.041X.059*%
%ADD15R,.026X.039*%
%ADD11R,.046X.055*%
%LPD*%
G75*
G54D10*
X27260Y10000D03*
X17740Y88000D03*
X10260D03*
X17740Y75000D03*
X10260D03*
Y100000D03*
X17740D03*
X28260Y113000D03*
X34740Y10000D03*
X53740D03*
X46260D03*
X35740Y113000D03*
X36260Y146000D03*
X43740D03*
X56260D03*
X74740Y10000D03*
X67260D03*
X87260D03*
X63740Y146000D03*
X77260D03*
X84740D03*
X94740Y10000D03*
X97260Y120000D03*
X104740D03*
Y109000D03*
X97260D03*
X102740Y95000D03*
X95260D03*
X134260Y88000D03*
X141740D03*
Y75000D03*
X134260D03*
G54D11*
X13000Y116374D03*
Y125626D03*
X109000Y14374D03*
Y23626D03*
G54D12*
X12000Y146000D03*
X22500D03*
X149000Y13000D03*
X138500D03*
G54D13*
X37000Y26740D03*
Y19260D03*
X50000Y26740D03*
Y19260D03*
X62000Y26740D03*
Y19260D03*
X36000Y55260D03*
X49000Y88260D03*
X36000Y62740D03*
X49000Y95740D03*
X75000Y26740D03*
Y19260D03*
X88000Y26740D03*
Y19260D03*
X64000Y88260D03*
X86000Y117740D03*
Y110260D03*
X64000Y95740D03*
X94000Y85740D03*
Y78260D03*
X126000Y14260D03*
Y21740D03*
X138000Y119740D03*
Y112260D03*
X148000Y119740D03*
Y112260D03*
G54D14*
X59331Y55000D03*
X50669Y51260D03*
Y58740D03*
X35669Y40000D03*
X44331Y43740D03*
Y36260D03*
X32669Y77000D03*
X41331Y80740D03*
Y73260D03*
X54669Y128000D03*
X63331Y131740D03*
Y124260D03*
X76669Y131000D03*
X85331Y134740D03*
Y127260D03*
X107669Y82000D03*
X116331Y85740D03*
Y78260D03*
X105331Y138000D03*
X96669Y134260D03*
Y141740D03*
G54D15*
X57000Y81331D03*
X60740Y72669D03*
X53260D03*
X53000Y113331D03*
X56740Y104669D03*
X49260D03*
X40000Y123669D03*
X36260Y132331D03*
X43740D03*
X120260Y96669D03*
X145000Y53669D03*
X138000Y44331D03*
X141740Y35669D03*
X134260D03*
X141260Y62331D03*
X148740D03*
X124000Y105331D03*
X127740Y96669D03*
G54D16*
X82764Y51000D03*
G54D17*
X75472Y78173D03*
X84528D03*
X116472Y120173D03*
X125528D03*
G54D18*
X80000Y99827D03*
X121000Y141827D03*
G54D19*
X109339Y60016D03*
Y51000D03*
Y41984D03*
M02*
