G04 ================== begin FILE IDENTIFICATION RECORD ==================*
G04 Layout Name:  PROIECT1_ENACHEVICTOR.brd*
G04 Film Name:    SSTOP*
G04 File Format:  Gerber RS274X*
G04 File Origin:  Cadence Allegro 24.1-S001*
G04 Origin Date:  Sat Dec  7 16:34:57 2024*
G04 *
G04 Layer:  USER PART NUMBER/SILKSCREEN_TOP*
G04 Layer:  TOLERANCE/SILKSCREEN_TOP*
G04 Layer:  REF DES/SILKSCREEN_TOP*
G04 Layer:  PACKAGE GEOMETRY/SILKSCREEN_TOP*
G04 Layer:  DEVICE TYPE/SILKSCREEN_TOP*
G04 Layer:  COMPONENT VALUE/SILKSCREEN_TOP*
G04 Layer:  BOARD GEOMETRY/SILKSCREEN_TOP*
G04 *
G04 Offset:    (0.00 0.00)*
G04 Mirror:    No*
G04 Mode:      Positive*
G04 Rotation:  0*
G04 FullContactRelief:  No*
G04 UndefLineWidth:     0.00*
G04 ================== end FILE IDENTIFICATION RECORD ====================*
%FSLAX25Y25*MOIN*%
%IR0*IPPOS*OFA0.00000B0.00000*MIA0B0*SFA1.00000B1.00000*%
%ADD10C,.005*%
%ADD11C,.006*%
%ADD12C,.00394*%
%ADD13C,.00984*%
%ADD14C,.00787*%
G75*
%LPD*%
G75*
G54D10*
G01X17000Y61083D02*
Y62617D01*
X20100D01*
Y61083D01*
G01X18602Y61697D02*
Y62617D01*
G01X17000Y59702D02*
X19067D01*
G01X18550D02*
X18808Y59548D01*
X19015Y59318D01*
X19067Y59012D01*
X19015Y58743D01*
X18808Y58513D01*
X18447Y58398D01*
X17000D01*
G01Y55560D02*
X19067D01*
G01X18705D02*
X18912Y55713D01*
X19015Y55943D01*
X19067Y56212D01*
X18963Y56480D01*
X18757Y56710D01*
X18447Y56863D01*
X18033Y56940D01*
X17620Y56863D01*
X17310Y56710D01*
X17103Y56480D01*
X17000Y56212D01*
X17052Y55943D01*
X17207Y55713D01*
X17413Y55560D01*
G01X18808Y52837D02*
X19015Y53105D01*
X19067Y53335D01*
X18963Y53642D01*
X18757Y53872D01*
X18395Y54025D01*
X18033Y54063D01*
X17672Y54025D01*
X17362Y53872D01*
X17103Y53642D01*
X17000Y53335D01*
X17103Y53067D01*
X17310Y52837D01*
G01X17000Y51302D02*
X20100D01*
G01X18602D02*
X18860Y51110D01*
X19015Y50918D01*
X19067Y50612D01*
X19015Y50382D01*
X18808Y50113D01*
X18498Y49998D01*
X17000D01*
G01X18395Y48425D02*
Y47198D01*
X18757Y47313D01*
X18963Y47505D01*
X19067Y47773D01*
X19015Y48042D01*
X18860Y48272D01*
X18498Y48425D01*
X18188Y48502D01*
X17878D01*
X17568Y48425D01*
X17258Y48233D01*
X17052Y48003D01*
X17000Y47735D01*
X17103Y47467D01*
X17413Y47198D01*
G01X20100Y43208D02*
X17000Y42250D01*
X20100Y41292D01*
G01X19067Y39450D02*
X17000D01*
G01X19893D02*
X19945Y39527D01*
X20048D01*
X20100Y39450D01*
X20048Y39373D01*
X19945D01*
X19893Y39450D01*
G01X18808Y36037D02*
X19015Y36305D01*
X19067Y36535D01*
X18963Y36842D01*
X18757Y37072D01*
X18395Y37225D01*
X18033Y37263D01*
X17672Y37225D01*
X17362Y37072D01*
X17103Y36842D01*
X17000Y36535D01*
X17103Y36267D01*
X17310Y36037D01*
G01X20100Y33850D02*
X17000D01*
G01X19067Y34387D02*
Y33313D01*
G01X17000Y31050D02*
X17052Y31280D01*
X17258Y31510D01*
X17620Y31663D01*
X18033Y31740D01*
X18447Y31663D01*
X18808Y31510D01*
X19015Y31280D01*
X19067Y31050D01*
X19015Y30820D01*
X18808Y30590D01*
X18447Y30437D01*
X18033Y30398D01*
X17620Y30437D01*
X17258Y30590D01*
X17052Y30820D01*
X17000Y31050D01*
G01Y28787D02*
X19067D01*
G01X18653D02*
X18860Y28595D01*
X19015Y28403D01*
X19067Y28135D01*
X19015Y27943D01*
X18860Y27713D01*
G01X10842Y61007D02*
X10997Y61237D01*
X11100Y61505D01*
Y61812D01*
X10945Y62157D01*
X10687Y62425D01*
X10377Y62617D01*
X9860Y62770D01*
X9395Y62808D01*
X8930Y62732D01*
X8620Y62617D01*
X8310Y62387D01*
X8103Y62118D01*
X8000Y61850D01*
Y61582D01*
X8103Y61313D01*
X8258Y61083D01*
X8465Y60892D01*
G01X8000Y58283D02*
Y59817D01*
X11100D01*
Y58283D01*
G01X9602Y58897D02*
Y59817D01*
G01X8000Y56978D02*
X11100D01*
Y55522D01*
G01X9602Y56058D02*
Y56978D01*
G01X10583Y54178D02*
X10893Y53948D01*
X11048Y53680D01*
X11100Y53373D01*
X10997Y52990D01*
X10738Y52722D01*
X10428Y52645D01*
X10118Y52683D01*
X9860Y52837D01*
X9343Y53603D01*
X8982Y53948D01*
X8465Y54178D01*
X8000Y54255D01*
Y52645D01*
G01X9033Y51148D02*
Y50152D01*
G01X8000Y48617D02*
X11100D01*
Y47697D01*
X10945Y47390D01*
X10583Y47160D01*
X10170Y47083D01*
X9757Y47160D01*
X9447Y47352D01*
X9292Y47697D01*
Y48617D01*
G01X10583Y42978D02*
X10893Y42748D01*
X11048Y42480D01*
X11100Y42173D01*
X10997Y41790D01*
X10738Y41522D01*
X10428Y41445D01*
X10118Y41483D01*
X9860Y41637D01*
X9343Y42403D01*
X8982Y42748D01*
X8465Y42978D01*
X8000Y43055D01*
Y41445D01*
G01X11100Y39450D02*
X10997Y39757D01*
X10738Y39987D01*
X10428Y40140D01*
X10015Y40255D01*
X9550Y40293D01*
X9085Y40255D01*
X8672Y40140D01*
X8362Y39987D01*
X8103Y39757D01*
X8000Y39450D01*
X8103Y39143D01*
X8362Y38913D01*
X8672Y38760D01*
X9085Y38645D01*
X9550Y38607D01*
X10015Y38645D01*
X10428Y38760D01*
X10738Y38913D01*
X10997Y39143D01*
X11100Y39450D01*
G01X10583Y37378D02*
X10893Y37148D01*
X11048Y36880D01*
X11100Y36573D01*
X10997Y36190D01*
X10738Y35922D01*
X10428Y35845D01*
X10118Y35883D01*
X9860Y36037D01*
X9343Y36803D01*
X8982Y37148D01*
X8465Y37378D01*
X8000Y37455D01*
Y35845D01*
G01Y33390D02*
X11100D01*
X8878Y34808D01*
Y32892D01*
G01X9033Y31548D02*
Y30552D01*
G01X10583Y28978D02*
X10893Y28748D01*
X11048Y28480D01*
X11100Y28173D01*
X10997Y27790D01*
X10738Y27522D01*
X10428Y27445D01*
X10118Y27483D01*
X9860Y27637D01*
X9343Y28403D01*
X8982Y28748D01*
X8465Y28978D01*
X8000Y29055D01*
Y27445D01*
G01X11100Y25450D02*
X10997Y25757D01*
X10738Y25987D01*
X10428Y26140D01*
X10015Y26255D01*
X9550Y26293D01*
X9085Y26255D01*
X8672Y26140D01*
X8362Y25987D01*
X8103Y25757D01*
X8000Y25450D01*
X8103Y25143D01*
X8362Y24913D01*
X8672Y24760D01*
X9085Y24645D01*
X9550Y24607D01*
X10015Y24645D01*
X10428Y24760D01*
X10738Y24913D01*
X10997Y25143D01*
X11100Y25450D01*
G01X10583Y23378D02*
X10893Y23148D01*
X11048Y22880D01*
X11100Y22573D01*
X10997Y22190D01*
X10738Y21922D01*
X10428Y21845D01*
X10118Y21883D01*
X9860Y22037D01*
X9343Y22803D01*
X8982Y23148D01*
X8465Y23378D01*
X8000Y23455D01*
Y21845D01*
G01X8465Y20693D02*
X8207Y20463D01*
X8052Y20195D01*
X8000Y19850D01*
X8103Y19505D01*
X8310Y19237D01*
X8672Y19045D01*
X9085Y19007D01*
X9498Y19083D01*
X9757Y19275D01*
X9963Y19543D01*
X10015Y19812D01*
X9963Y20080D01*
X9757Y20425D01*
X11100Y20310D01*
Y19275D01*
G01X29000Y27617D02*
X32100D01*
Y26658D01*
X31945Y26352D01*
X31738Y26160D01*
X31325Y26083D01*
X30912Y26160D01*
X30653Y26390D01*
X30498Y26658D01*
Y27617D01*
G01Y26658D02*
X29000Y26083D01*
G01Y24050D02*
X32100D01*
X31480Y24510D01*
G01X29000D02*
Y23590D01*
G01Y21250D02*
X29052Y20982D01*
X29207Y20675D01*
X29465Y20483D01*
X29827Y20407D01*
X30188Y20483D01*
X30498Y20713D01*
X30653Y21058D01*
Y21442D01*
X30757Y21672D01*
X31015Y21863D01*
X31377Y21940D01*
X31738Y21825D01*
X31997Y21557D01*
X32100Y21250D01*
X31997Y20943D01*
X31738Y20675D01*
X31377Y20560D01*
X31015Y20637D01*
X30757Y20828D01*
X30653Y21058D01*
Y21442D01*
X30498Y21787D01*
X30188Y22017D01*
X29827Y22093D01*
X29465Y22017D01*
X29207Y21825D01*
X29052Y21518D01*
X29000Y21250D01*
G01Y27617D02*
X32100D01*
Y26658D01*
X31945Y26352D01*
X31738Y26160D01*
X31325Y26083D01*
X30912Y26160D01*
X30653Y26390D01*
X30498Y26658D01*
Y27617D01*
G01Y26658D02*
X29000Y26083D01*
G01Y24050D02*
X32100D01*
X31480Y24510D01*
G01X29000D02*
Y23590D01*
G01Y21250D02*
X29052Y20982D01*
X29207Y20675D01*
X29465Y20483D01*
X29827Y20407D01*
X30188Y20483D01*
X30498Y20713D01*
X30653Y21058D01*
Y21442D01*
X30757Y21672D01*
X31015Y21863D01*
X31377Y21940D01*
X31738Y21825D01*
X31997Y21557D01*
X32100Y21250D01*
X31997Y20943D01*
X31738Y20675D01*
X31377Y20560D01*
X31015Y20637D01*
X30757Y20828D01*
X30653Y21058D01*
Y21442D01*
X30498Y21787D01*
X30188Y22017D01*
X29827Y22093D01*
X29465Y22017D01*
X29207Y21825D01*
X29052Y21518D01*
X29000Y21250D01*
G01X13000Y61390D02*
X16100D01*
X13878Y62808D01*
Y60892D01*
G01X13620Y59893D02*
X13258Y59663D01*
X13052Y59357D01*
X13000Y59012D01*
X13052Y58705D01*
X13310Y58398D01*
X13620Y58207D01*
X13930Y58168D01*
X14292Y58245D01*
X14550Y58513D01*
X14653Y58782D01*
Y59127D01*
G01Y58782D02*
X14808Y58552D01*
X15067Y58360D01*
X15377Y58283D01*
X15687Y58360D01*
X15945Y58552D01*
X16100Y58897D01*
X16048Y59242D01*
X15842Y59587D01*
G01X13000Y55790D02*
X16100D01*
X13878Y57208D01*
Y55292D01*
G01X13000Y54293D02*
X16100D01*
Y53527D01*
X15945Y53220D01*
X15738Y52990D01*
X15428Y52798D01*
X15067Y52645D01*
X14550Y52607D01*
X14033Y52645D01*
X13672Y52798D01*
X13362Y52990D01*
X13155Y53220D01*
X13000Y53527D01*
Y54293D01*
G01X29000Y60617D02*
X32100D01*
Y59658D01*
X31945Y59352D01*
X31738Y59160D01*
X31325Y59083D01*
X30912Y59160D01*
X30653Y59390D01*
X30498Y59658D01*
Y60617D01*
G01Y59658D02*
X29000Y59083D01*
G01Y57050D02*
X29052Y56782D01*
X29207Y56475D01*
X29465Y56283D01*
X29827Y56207D01*
X30188Y56283D01*
X30498Y56513D01*
X30653Y56858D01*
Y57242D01*
X30757Y57472D01*
X31015Y57663D01*
X31377Y57740D01*
X31738Y57625D01*
X31997Y57357D01*
X32100Y57050D01*
X31997Y56743D01*
X31738Y56475D01*
X31377Y56360D01*
X31015Y56437D01*
X30757Y56628D01*
X30653Y56858D01*
Y57242D01*
X30498Y57587D01*
X30188Y57817D01*
X29827Y57893D01*
X29465Y57817D01*
X29207Y57625D01*
X29052Y57318D01*
X29000Y57050D01*
G01Y60617D02*
X32100D01*
Y59658D01*
X31945Y59352D01*
X31738Y59160D01*
X31325Y59083D01*
X30912Y59160D01*
X30653Y59390D01*
X30498Y59658D01*
Y60617D01*
G01Y59658D02*
X29000Y59083D01*
G01Y57050D02*
X29052Y56782D01*
X29207Y56475D01*
X29465Y56283D01*
X29827Y56207D01*
X30188Y56283D01*
X30498Y56513D01*
X30653Y56858D01*
Y57242D01*
X30757Y57472D01*
X31015Y57663D01*
X31377Y57740D01*
X31738Y57625D01*
X31997Y57357D01*
X32100Y57050D01*
X31997Y56743D01*
X31738Y56475D01*
X31377Y56360D01*
X31015Y56437D01*
X30757Y56628D01*
X30653Y56858D01*
Y57242D01*
X30498Y57587D01*
X30188Y57817D01*
X29827Y57893D01*
X29465Y57817D01*
X29207Y57625D01*
X29052Y57318D01*
X29000Y57050D01*
G01X28000Y40850D02*
X28052Y41157D01*
X28258Y41425D01*
X28568Y41655D01*
X28930Y41808D01*
X29343Y41885D01*
X29757D01*
X30170Y41808D01*
X30532Y41655D01*
X30842Y41425D01*
X31048Y41157D01*
X31100Y40850D01*
X31048Y40543D01*
X30842Y40275D01*
X30532Y40045D01*
X30170Y39892D01*
X29757Y39815D01*
X29343D01*
X28930Y39892D01*
X28568Y40045D01*
X28258Y40275D01*
X28052Y40543D01*
X28000Y40850D01*
G01X28827Y40543D02*
X28000Y40083D01*
G01X29292Y38778D02*
X29653Y38510D01*
X29860Y38280D01*
X29963Y37973D01*
X29860Y37705D01*
X29653Y37513D01*
X29343Y37360D01*
X28982Y37322D01*
X28672Y37360D01*
X28362Y37513D01*
X28103Y37743D01*
X28000Y38012D01*
X28103Y38318D01*
X28413Y38587D01*
X28878Y38740D01*
X29395Y38778D01*
X30067Y38702D01*
X30428Y38587D01*
X30790Y38395D01*
X31048Y38127D01*
X31100Y37858D01*
X30997Y37590D01*
X30738Y37398D01*
G01X28000Y40850D02*
X28052Y41157D01*
X28258Y41425D01*
X28568Y41655D01*
X28930Y41808D01*
X29343Y41885D01*
X29757D01*
X30170Y41808D01*
X30532Y41655D01*
X30842Y41425D01*
X31048Y41157D01*
X31100Y40850D01*
X31048Y40543D01*
X30842Y40275D01*
X30532Y40045D01*
X30170Y39892D01*
X29757Y39815D01*
X29343D01*
X28930Y39892D01*
X28568Y40045D01*
X28258Y40275D01*
X28052Y40543D01*
X28000Y40850D01*
G01X28827Y40543D02*
X28000Y40083D01*
G01X29292Y38778D02*
X29653Y38510D01*
X29860Y38280D01*
X29963Y37973D01*
X29860Y37705D01*
X29653Y37513D01*
X29343Y37360D01*
X28982Y37322D01*
X28672Y37360D01*
X28362Y37513D01*
X28103Y37743D01*
X28000Y38012D01*
X28103Y38318D01*
X28413Y38587D01*
X28878Y38740D01*
X29395Y38778D01*
X30067Y38702D01*
X30428Y38587D01*
X30790Y38395D01*
X31048Y38127D01*
X31100Y37858D01*
X30997Y37590D01*
X30738Y37398D01*
G01X10383Y79000D02*
Y82100D01*
X11342D01*
X11648Y81945D01*
X11840Y81738D01*
X11917Y81325D01*
X11840Y80912D01*
X11610Y80653D01*
X11342Y80498D01*
X10383D01*
G01X11342D02*
X11917Y79000D01*
G01X13222Y81583D02*
X13452Y81893D01*
X13720Y82048D01*
X14027Y82100D01*
X14410Y81997D01*
X14678Y81738D01*
X14755Y81428D01*
X14717Y81118D01*
X14563Y80860D01*
X13797Y80343D01*
X13452Y79982D01*
X13222Y79465D01*
X13145Y79000D01*
X14755D01*
G01X15907Y79620D02*
X16137Y79258D01*
X16443Y79052D01*
X16788Y79000D01*
X17095Y79052D01*
X17402Y79310D01*
X17593Y79620D01*
X17632Y79930D01*
X17555Y80292D01*
X17287Y80550D01*
X17018Y80653D01*
X16673D01*
G01X17018D02*
X17248Y80808D01*
X17440Y81067D01*
X17517Y81377D01*
X17440Y81687D01*
X17248Y81945D01*
X16903Y82100D01*
X16558Y82048D01*
X16213Y81842D01*
G01X10383Y79000D02*
Y82100D01*
X11342D01*
X11648Y81945D01*
X11840Y81738D01*
X11917Y81325D01*
X11840Y80912D01*
X11610Y80653D01*
X11342Y80498D01*
X10383D01*
G01X11342D02*
X11917Y79000D01*
G01X13222Y81583D02*
X13452Y81893D01*
X13720Y82048D01*
X14027Y82100D01*
X14410Y81997D01*
X14678Y81738D01*
X14755Y81428D01*
X14717Y81118D01*
X14563Y80860D01*
X13797Y80343D01*
X13452Y79982D01*
X13222Y79465D01*
X13145Y79000D01*
X14755D01*
G01X15907Y79620D02*
X16137Y79258D01*
X16443Y79052D01*
X16788Y79000D01*
X17095Y79052D01*
X17402Y79310D01*
X17593Y79620D01*
X17632Y79930D01*
X17555Y80292D01*
X17287Y80550D01*
X17018Y80653D01*
X16673D01*
G01X17018D02*
X17248Y80808D01*
X17440Y81067D01*
X17517Y81377D01*
X17440Y81687D01*
X17248Y81945D01*
X16903Y82100D01*
X16558Y82048D01*
X16213Y81842D01*
G01X20000Y121693D02*
X23100D01*
Y120927D01*
X22945Y120620D01*
X22738Y120390D01*
X22428Y120198D01*
X22067Y120045D01*
X21550Y120007D01*
X21033Y120045D01*
X20672Y120198D01*
X20362Y120390D01*
X20155Y120620D01*
X20000Y120927D01*
Y121693D01*
G01Y118050D02*
X23100D01*
X22480Y118510D01*
G01X20000D02*
Y117590D01*
G01Y121693D02*
X23100D01*
Y120927D01*
X22945Y120620D01*
X22738Y120390D01*
X22428Y120198D01*
X22067Y120045D01*
X21550Y120007D01*
X21033Y120045D01*
X20672Y120198D01*
X20362Y120390D01*
X20155Y120620D01*
X20000Y120927D01*
Y121693D01*
G01Y118050D02*
X23100D01*
X22480Y118510D01*
G01X20000D02*
Y117590D01*
G01X11383Y105000D02*
Y108100D01*
X12342D01*
X12648Y107945D01*
X12840Y107738D01*
X12917Y107325D01*
X12840Y106912D01*
X12610Y106653D01*
X12342Y106498D01*
X11383D01*
G01X12342D02*
X12917Y105000D01*
G01X14298Y105362D02*
X14567Y105103D01*
X14873Y105000D01*
X15180Y105103D01*
X15448Y105413D01*
X15640Y105878D01*
X15717Y106343D01*
Y106912D01*
X15640Y107377D01*
X15448Y107790D01*
X15218Y107997D01*
X14950Y108100D01*
X14643Y107997D01*
X14413Y107790D01*
X14260Y107480D01*
X14183Y107067D01*
X14260Y106705D01*
X14452Y106343D01*
X14682Y106137D01*
X14950Y106085D01*
X15257Y106188D01*
X15487Y106447D01*
X15717Y106912D01*
G01X11383Y105000D02*
Y108100D01*
X12342D01*
X12648Y107945D01*
X12840Y107738D01*
X12917Y107325D01*
X12840Y106912D01*
X12610Y106653D01*
X12342Y106498D01*
X11383D01*
G01X12342D02*
X12917Y105000D01*
G01X14298Y105362D02*
X14567Y105103D01*
X14873Y105000D01*
X15180Y105103D01*
X15448Y105413D01*
X15640Y105878D01*
X15717Y106343D01*
Y106912D01*
X15640Y107377D01*
X15448Y107790D01*
X15218Y107997D01*
X14950Y108100D01*
X14643Y107997D01*
X14413Y107790D01*
X14260Y107480D01*
X14183Y107067D01*
X14260Y106705D01*
X14452Y106343D01*
X14682Y106137D01*
X14950Y106085D01*
X15257Y106188D01*
X15487Y106447D01*
X15717Y106912D01*
G01X10383Y92000D02*
Y95100D01*
X11342D01*
X11648Y94945D01*
X11840Y94738D01*
X11917Y94325D01*
X11840Y93912D01*
X11610Y93653D01*
X11342Y93498D01*
X10383D01*
G01X11342D02*
X11917Y92000D01*
G01X13950D02*
Y95100D01*
X13490Y94480D01*
G01Y92000D02*
X14410D01*
G01X16750D02*
Y95100D01*
X16290Y94480D01*
G01Y92000D02*
X17210D01*
G01X10383D02*
Y95100D01*
X11342D01*
X11648Y94945D01*
X11840Y94738D01*
X11917Y94325D01*
X11840Y93912D01*
X11610Y93653D01*
X11342Y93498D01*
X10383D01*
G01X11342D02*
X11917Y92000D01*
G01X13950D02*
Y95100D01*
X13490Y94480D01*
G01Y92000D02*
X14410D01*
G01X16750D02*
Y95100D01*
X16290Y94480D01*
G01Y92000D02*
X17210D01*
G01X29383Y105000D02*
Y108100D01*
X30342D01*
X30648Y107945D01*
X30840Y107738D01*
X30917Y107325D01*
X30840Y106912D01*
X30610Y106653D01*
X30342Y106498D01*
X29383D01*
G01X30342D02*
X30917Y105000D01*
G01X32950D02*
Y108100D01*
X32490Y107480D01*
G01Y105000D02*
X33410D01*
G01X35750Y108100D02*
X35443Y107997D01*
X35213Y107738D01*
X35060Y107428D01*
X34945Y107015D01*
X34907Y106550D01*
X34945Y106085D01*
X35060Y105672D01*
X35213Y105362D01*
X35443Y105103D01*
X35750Y105000D01*
X36057Y105103D01*
X36287Y105362D01*
X36440Y105672D01*
X36555Y106085D01*
X36593Y106550D01*
X36555Y107015D01*
X36440Y107428D01*
X36287Y107738D01*
X36057Y107997D01*
X35750Y108100D01*
G01X29383Y105000D02*
Y108100D01*
X30342D01*
X30648Y107945D01*
X30840Y107738D01*
X30917Y107325D01*
X30840Y106912D01*
X30610Y106653D01*
X30342Y106498D01*
X29383D01*
G01X30342D02*
X30917Y105000D01*
G01X32950D02*
Y108100D01*
X32490Y107480D01*
G01Y105000D02*
X33410D01*
G01X35750Y108100D02*
X35443Y107997D01*
X35213Y107738D01*
X35060Y107428D01*
X34945Y107015D01*
X34907Y106550D01*
X34945Y106085D01*
X35060Y105672D01*
X35213Y105362D01*
X35443Y105103D01*
X35750Y105000D01*
X36057Y105103D01*
X36287Y105362D01*
X36440Y105672D01*
X36555Y106085D01*
X36593Y106550D01*
X36555Y107015D01*
X36440Y107428D01*
X36287Y107738D01*
X36057Y107997D01*
X35750Y108100D01*
G01X7633Y134320D02*
X7825Y134010D01*
X8055Y133803D01*
X8323Y133700D01*
X8630Y133803D01*
X8860Y134010D01*
X9090Y134320D01*
X9167Y134733D01*
Y136800D01*
G01X11200Y133700D02*
Y136800D01*
X10740Y136180D01*
G01Y133700D02*
X11660D01*
G01X7633Y134320D02*
X7825Y134010D01*
X8055Y133803D01*
X8323Y133700D01*
X8630Y133803D01*
X8860Y134010D01*
X9090Y134320D01*
X9167Y134733D01*
Y136800D01*
G01X11200Y133700D02*
Y136800D01*
X10740Y136180D01*
G01Y133700D02*
X11660D01*
G01X7633Y134320D02*
X7825Y134010D01*
X8055Y133803D01*
X8323Y133700D01*
X8630Y133803D01*
X8860Y134010D01*
X9090Y134320D01*
X9167Y134733D01*
Y136800D01*
G01X11200Y133700D02*
Y136800D01*
X10740Y136180D01*
G01Y133700D02*
X11660D01*
G01X42000Y26617D02*
X45100D01*
Y25658D01*
X44945Y25352D01*
X44738Y25160D01*
X44325Y25083D01*
X43912Y25160D01*
X43653Y25390D01*
X43498Y25658D01*
Y26617D01*
G01Y25658D02*
X42000Y25083D01*
G01Y23050D02*
X45100D01*
X44480Y23510D01*
G01X42000D02*
Y22590D01*
G01X42362Y20902D02*
X42103Y20633D01*
X42000Y20327D01*
X42103Y20020D01*
X42413Y19752D01*
X42878Y19560D01*
X43343Y19483D01*
X43912D01*
X44377Y19560D01*
X44790Y19752D01*
X44997Y19982D01*
X45100Y20250D01*
X44997Y20557D01*
X44790Y20787D01*
X44480Y20940D01*
X44067Y21017D01*
X43705Y20940D01*
X43343Y20748D01*
X43137Y20518D01*
X43085Y20250D01*
X43188Y19943D01*
X43447Y19713D01*
X43912Y19483D01*
G01X42000Y26617D02*
X45100D01*
Y25658D01*
X44945Y25352D01*
X44738Y25160D01*
X44325Y25083D01*
X43912Y25160D01*
X43653Y25390D01*
X43498Y25658D01*
Y26617D01*
G01Y25658D02*
X42000Y25083D01*
G01Y23050D02*
X45100D01*
X44480Y23510D01*
G01X42000D02*
Y22590D01*
G01X42362Y20902D02*
X42103Y20633D01*
X42000Y20327D01*
X42103Y20020D01*
X42413Y19752D01*
X42878Y19560D01*
X43343Y19483D01*
X43912D01*
X44377Y19560D01*
X44790Y19752D01*
X44997Y19982D01*
X45100Y20250D01*
X44997Y20557D01*
X44790Y20787D01*
X44480Y20940D01*
X44067Y21017D01*
X43705Y20940D01*
X43343Y20748D01*
X43137Y20518D01*
X43085Y20250D01*
X43188Y19943D01*
X43447Y19713D01*
X43912Y19483D01*
G01X54000Y26617D02*
X57100D01*
Y25658D01*
X56945Y25352D01*
X56738Y25160D01*
X56325Y25083D01*
X55912Y25160D01*
X55653Y25390D01*
X55498Y25658D01*
Y26617D01*
G01Y25658D02*
X54000Y25083D01*
G01X56583Y23778D02*
X56893Y23548D01*
X57048Y23280D01*
X57100Y22973D01*
X56997Y22590D01*
X56738Y22322D01*
X56428Y22245D01*
X56118Y22283D01*
X55860Y22437D01*
X55343Y23203D01*
X54982Y23548D01*
X54465Y23778D01*
X54000Y23855D01*
Y22245D01*
G01X57100Y20250D02*
X56997Y20557D01*
X56738Y20787D01*
X56428Y20940D01*
X56015Y21055D01*
X55550Y21093D01*
X55085Y21055D01*
X54672Y20940D01*
X54362Y20787D01*
X54103Y20557D01*
X54000Y20250D01*
X54103Y19943D01*
X54362Y19713D01*
X54672Y19560D01*
X55085Y19445D01*
X55550Y19407D01*
X56015Y19445D01*
X56428Y19560D01*
X56738Y19713D01*
X56997Y19943D01*
X57100Y20250D01*
G01X54000Y26617D02*
X57100D01*
Y25658D01*
X56945Y25352D01*
X56738Y25160D01*
X56325Y25083D01*
X55912Y25160D01*
X55653Y25390D01*
X55498Y25658D01*
Y26617D01*
G01Y25658D02*
X54000Y25083D01*
G01X56583Y23778D02*
X56893Y23548D01*
X57048Y23280D01*
X57100Y22973D01*
X56997Y22590D01*
X56738Y22322D01*
X56428Y22245D01*
X56118Y22283D01*
X55860Y22437D01*
X55343Y23203D01*
X54982Y23548D01*
X54465Y23778D01*
X54000Y23855D01*
Y22245D01*
G01X57100Y20250D02*
X56997Y20557D01*
X56738Y20787D01*
X56428Y20940D01*
X56015Y21055D01*
X55550Y21093D01*
X55085Y21055D01*
X54672Y20940D01*
X54362Y20787D01*
X54103Y20557D01*
X54000Y20250D01*
X54103Y19943D01*
X54362Y19713D01*
X54672Y19560D01*
X55085Y19445D01*
X55550Y19407D01*
X56015Y19445D01*
X56428Y19560D01*
X56738Y19713D01*
X56997Y19943D01*
X57100Y20250D01*
G01X31383Y14000D02*
Y17100D01*
X32342D01*
X32648Y16945D01*
X32840Y16738D01*
X32917Y16325D01*
X32840Y15912D01*
X32610Y15653D01*
X32342Y15498D01*
X31383D01*
G01X32342D02*
X32917Y14000D01*
G01X34107Y14620D02*
X34337Y14258D01*
X34643Y14052D01*
X34988Y14000D01*
X35295Y14052D01*
X35602Y14310D01*
X35793Y14620D01*
X35832Y14930D01*
X35755Y15292D01*
X35487Y15550D01*
X35218Y15653D01*
X34873D01*
G01X35218D02*
X35448Y15808D01*
X35640Y16067D01*
X35717Y16377D01*
X35640Y16687D01*
X35448Y16945D01*
X35103Y17100D01*
X34758Y17048D01*
X34413Y16842D01*
G01X31383Y14000D02*
Y17100D01*
X32342D01*
X32648Y16945D01*
X32840Y16738D01*
X32917Y16325D01*
X32840Y15912D01*
X32610Y15653D01*
X32342Y15498D01*
X31383D01*
G01X32342D02*
X32917Y14000D01*
G01X34107Y14620D02*
X34337Y14258D01*
X34643Y14052D01*
X34988Y14000D01*
X35295Y14052D01*
X35602Y14310D01*
X35793Y14620D01*
X35832Y14930D01*
X35755Y15292D01*
X35487Y15550D01*
X35218Y15653D01*
X34873D01*
G01X35218D02*
X35448Y15808D01*
X35640Y16067D01*
X35717Y16377D01*
X35640Y16687D01*
X35448Y16945D01*
X35103Y17100D01*
X34758Y17048D01*
X34413Y16842D01*
G01X47383Y14000D02*
Y17100D01*
X48342D01*
X48648Y16945D01*
X48840Y16738D01*
X48917Y16325D01*
X48840Y15912D01*
X48610Y15653D01*
X48342Y15498D01*
X47383D01*
G01X48342D02*
X48917Y14000D01*
G01X51410D02*
Y17100D01*
X49992Y14878D01*
X51908D01*
G01X47383Y14000D02*
Y17100D01*
X48342D01*
X48648Y16945D01*
X48840Y16738D01*
X48917Y16325D01*
X48840Y15912D01*
X48610Y15653D01*
X48342Y15498D01*
X47383D01*
G01X48342D02*
X48917Y14000D01*
G01X51410D02*
Y17100D01*
X49992Y14878D01*
X51908D01*
G01X41000Y95617D02*
X44100D01*
Y94658D01*
X43945Y94352D01*
X43738Y94160D01*
X43325Y94083D01*
X42912Y94160D01*
X42653Y94390D01*
X42498Y94658D01*
Y95617D01*
G01Y94658D02*
X41000Y94083D01*
G01X43583Y92778D02*
X43893Y92548D01*
X44048Y92280D01*
X44100Y91973D01*
X43997Y91590D01*
X43738Y91322D01*
X43428Y91245D01*
X43118Y91283D01*
X42860Y91437D01*
X42343Y92203D01*
X41982Y92548D01*
X41465Y92778D01*
X41000Y92855D01*
Y91245D01*
G01Y89327D02*
X41672Y89250D01*
X42240Y89135D01*
X42757Y88982D01*
X43325Y88790D01*
X44100Y88483D01*
Y90017D01*
G01X41000Y95617D02*
X44100D01*
Y94658D01*
X43945Y94352D01*
X43738Y94160D01*
X43325Y94083D01*
X42912Y94160D01*
X42653Y94390D01*
X42498Y94658D01*
Y95617D01*
G01Y94658D02*
X41000Y94083D01*
G01X43583Y92778D02*
X43893Y92548D01*
X44048Y92280D01*
X44100Y91973D01*
X43997Y91590D01*
X43738Y91322D01*
X43428Y91245D01*
X43118Y91283D01*
X42860Y91437D01*
X42343Y92203D01*
X41982Y92548D01*
X41465Y92778D01*
X41000Y92855D01*
Y91245D01*
G01Y89327D02*
X41672Y89250D01*
X42240Y89135D01*
X42757Y88982D01*
X43325Y88790D01*
X44100Y88483D01*
Y90017D01*
G01X56000Y95617D02*
X59100D01*
Y94658D01*
X58945Y94352D01*
X58738Y94160D01*
X58325Y94083D01*
X57912Y94160D01*
X57653Y94390D01*
X57498Y94658D01*
Y95617D01*
G01Y94658D02*
X56000Y94083D01*
G01X58583Y92778D02*
X58893Y92548D01*
X59048Y92280D01*
X59100Y91973D01*
X58997Y91590D01*
X58738Y91322D01*
X58428Y91245D01*
X58118Y91283D01*
X57860Y91437D01*
X57343Y92203D01*
X56982Y92548D01*
X56465Y92778D01*
X56000Y92855D01*
Y91245D01*
G01Y89250D02*
X56052Y88982D01*
X56207Y88675D01*
X56465Y88483D01*
X56827Y88407D01*
X57188Y88483D01*
X57498Y88713D01*
X57653Y89058D01*
Y89442D01*
X57757Y89672D01*
X58015Y89863D01*
X58377Y89940D01*
X58738Y89825D01*
X58997Y89557D01*
X59100Y89250D01*
X58997Y88943D01*
X58738Y88675D01*
X58377Y88560D01*
X58015Y88637D01*
X57757Y88828D01*
X57653Y89058D01*
Y89442D01*
X57498Y89787D01*
X57188Y90017D01*
X56827Y90093D01*
X56465Y90017D01*
X56207Y89825D01*
X56052Y89518D01*
X56000Y89250D01*
G01Y95617D02*
X59100D01*
Y94658D01*
X58945Y94352D01*
X58738Y94160D01*
X58325Y94083D01*
X57912Y94160D01*
X57653Y94390D01*
X57498Y94658D01*
Y95617D01*
G01Y94658D02*
X56000Y94083D01*
G01X58583Y92778D02*
X58893Y92548D01*
X59048Y92280D01*
X59100Y91973D01*
X58997Y91590D01*
X58738Y91322D01*
X58428Y91245D01*
X58118Y91283D01*
X57860Y91437D01*
X57343Y92203D01*
X56982Y92548D01*
X56465Y92778D01*
X56000Y92855D01*
Y91245D01*
G01Y89250D02*
X56052Y88982D01*
X56207Y88675D01*
X56465Y88483D01*
X56827Y88407D01*
X57188Y88483D01*
X57498Y88713D01*
X57653Y89058D01*
Y89442D01*
X57757Y89672D01*
X58015Y89863D01*
X58377Y89940D01*
X58738Y89825D01*
X58997Y89557D01*
X59100Y89250D01*
X58997Y88943D01*
X58738Y88675D01*
X58377Y88560D01*
X58015Y88637D01*
X57757Y88828D01*
X57653Y89058D01*
Y89442D01*
X57498Y89787D01*
X57188Y90017D01*
X56827Y90093D01*
X56465Y90017D01*
X56207Y89825D01*
X56052Y89518D01*
X56000Y89250D01*
G01X33150Y85000D02*
X32843Y85052D01*
X32575Y85258D01*
X32345Y85568D01*
X32192Y85930D01*
X32115Y86343D01*
Y86757D01*
X32192Y87170D01*
X32345Y87532D01*
X32575Y87842D01*
X32843Y88048D01*
X33150Y88100D01*
X33457Y88048D01*
X33725Y87842D01*
X33955Y87532D01*
X34108Y87170D01*
X34185Y86757D01*
Y86343D01*
X34108Y85930D01*
X33955Y85568D01*
X33725Y85258D01*
X33457Y85052D01*
X33150Y85000D01*
G01X33457Y85827D02*
X33917Y85000D01*
G01X35950D02*
Y88100D01*
X35490Y87480D01*
G01Y85000D02*
X36410D01*
G01X38022Y87583D02*
X38252Y87893D01*
X38520Y88048D01*
X38827Y88100D01*
X39210Y87997D01*
X39478Y87738D01*
X39555Y87428D01*
X39517Y87118D01*
X39363Y86860D01*
X38597Y86343D01*
X38252Y85982D01*
X38022Y85465D01*
X37945Y85000D01*
X39555D01*
G01X33150D02*
X32843Y85052D01*
X32575Y85258D01*
X32345Y85568D01*
X32192Y85930D01*
X32115Y86343D01*
Y86757D01*
X32192Y87170D01*
X32345Y87532D01*
X32575Y87842D01*
X32843Y88048D01*
X33150Y88100D01*
X33457Y88048D01*
X33725Y87842D01*
X33955Y87532D01*
X34108Y87170D01*
X34185Y86757D01*
Y86343D01*
X34108Y85930D01*
X33955Y85568D01*
X33725Y85258D01*
X33457Y85052D01*
X33150Y85000D01*
G01X33457Y85827D02*
X33917Y85000D01*
G01X35950D02*
Y88100D01*
X35490Y87480D01*
G01Y85000D02*
X36410D01*
G01X38022Y87583D02*
X38252Y87893D01*
X38520Y88048D01*
X38827Y88100D01*
X39210Y87997D01*
X39478Y87738D01*
X39555Y87428D01*
X39517Y87118D01*
X39363Y86860D01*
X38597Y86343D01*
X38252Y85982D01*
X38022Y85465D01*
X37945Y85000D01*
X39555D01*
G01X46000Y78850D02*
X46052Y79157D01*
X46258Y79425D01*
X46568Y79655D01*
X46930Y79808D01*
X47343Y79885D01*
X47757D01*
X48170Y79808D01*
X48532Y79655D01*
X48842Y79425D01*
X49048Y79157D01*
X49100Y78850D01*
X49048Y78543D01*
X48842Y78275D01*
X48532Y78045D01*
X48170Y77892D01*
X47757Y77815D01*
X47343D01*
X46930Y77892D01*
X46568Y78045D01*
X46258Y78275D01*
X46052Y78543D01*
X46000Y78850D01*
G01X46827Y78543D02*
X46000Y78083D01*
G01Y76050D02*
X49100D01*
X48480Y76510D01*
G01X46000D02*
Y75590D01*
G01X46620Y74093D02*
X46258Y73863D01*
X46052Y73557D01*
X46000Y73212D01*
X46052Y72905D01*
X46310Y72598D01*
X46620Y72407D01*
X46930Y72368D01*
X47292Y72445D01*
X47550Y72713D01*
X47653Y72982D01*
Y73327D01*
G01Y72982D02*
X47808Y72752D01*
X48067Y72560D01*
X48377Y72483D01*
X48687Y72560D01*
X48945Y72752D01*
X49100Y73097D01*
X49048Y73442D01*
X48842Y73787D01*
G01X46000Y78850D02*
X46052Y79157D01*
X46258Y79425D01*
X46568Y79655D01*
X46930Y79808D01*
X47343Y79885D01*
X47757D01*
X48170Y79808D01*
X48532Y79655D01*
X48842Y79425D01*
X49048Y79157D01*
X49100Y78850D01*
X49048Y78543D01*
X48842Y78275D01*
X48532Y78045D01*
X48170Y77892D01*
X47757Y77815D01*
X47343D01*
X46930Y77892D01*
X46568Y78045D01*
X46258Y78275D01*
X46052Y78543D01*
X46000Y78850D01*
G01X46827Y78543D02*
X46000Y78083D01*
G01Y76050D02*
X49100D01*
X48480Y76510D01*
G01X46000D02*
Y75590D01*
G01X46620Y74093D02*
X46258Y73863D01*
X46052Y73557D01*
X46000Y73212D01*
X46052Y72905D01*
X46310Y72598D01*
X46620Y72407D01*
X46930Y72368D01*
X47292Y72445D01*
X47550Y72713D01*
X47653Y72982D01*
Y73327D01*
G01Y72982D02*
X47808Y72752D01*
X48067Y72560D01*
X48377Y72483D01*
X48687Y72560D01*
X48945Y72752D01*
X49100Y73097D01*
X49048Y73442D01*
X48842Y73787D01*
G01X53150Y63000D02*
X52843Y63052D01*
X52575Y63258D01*
X52345Y63568D01*
X52192Y63930D01*
X52115Y64343D01*
Y64757D01*
X52192Y65170D01*
X52345Y65532D01*
X52575Y65842D01*
X52843Y66048D01*
X53150Y66100D01*
X53457Y66048D01*
X53725Y65842D01*
X53955Y65532D01*
X54108Y65170D01*
X54185Y64757D01*
Y64343D01*
X54108Y63930D01*
X53955Y63568D01*
X53725Y63258D01*
X53457Y63052D01*
X53150Y63000D01*
G01X53457Y63827D02*
X53917Y63000D01*
G01X55107Y63620D02*
X55337Y63258D01*
X55643Y63052D01*
X55988Y63000D01*
X56295Y63052D01*
X56602Y63310D01*
X56793Y63620D01*
X56832Y63930D01*
X56755Y64292D01*
X56487Y64550D01*
X56218Y64653D01*
X55873D01*
G01X56218D02*
X56448Y64808D01*
X56640Y65067D01*
X56717Y65377D01*
X56640Y65687D01*
X56448Y65945D01*
X56103Y66100D01*
X55758Y66048D01*
X55413Y65842D01*
G01X53150Y63000D02*
X52843Y63052D01*
X52575Y63258D01*
X52345Y63568D01*
X52192Y63930D01*
X52115Y64343D01*
Y64757D01*
X52192Y65170D01*
X52345Y65532D01*
X52575Y65842D01*
X52843Y66048D01*
X53150Y66100D01*
X53457Y66048D01*
X53725Y65842D01*
X53955Y65532D01*
X54108Y65170D01*
X54185Y64757D01*
Y64343D01*
X54108Y63930D01*
X53955Y63568D01*
X53725Y63258D01*
X53457Y63052D01*
X53150Y63000D01*
G01X53457Y63827D02*
X53917Y63000D01*
G01X55107Y63620D02*
X55337Y63258D01*
X55643Y63052D01*
X55988Y63000D01*
X56295Y63052D01*
X56602Y63310D01*
X56793Y63620D01*
X56832Y63930D01*
X56755Y64292D01*
X56487Y64550D01*
X56218Y64653D01*
X55873D01*
G01X56218D02*
X56448Y64808D01*
X56640Y65067D01*
X56717Y65377D01*
X56640Y65687D01*
X56448Y65945D01*
X56103Y66100D01*
X55758Y66048D01*
X55413Y65842D01*
G01X57150Y117000D02*
X56843Y117052D01*
X56575Y117258D01*
X56345Y117568D01*
X56192Y117930D01*
X56115Y118343D01*
Y118757D01*
X56192Y119170D01*
X56345Y119532D01*
X56575Y119842D01*
X56843Y120048D01*
X57150Y120100D01*
X57457Y120048D01*
X57725Y119842D01*
X57955Y119532D01*
X58108Y119170D01*
X58185Y118757D01*
Y118343D01*
X58108Y117930D01*
X57955Y117568D01*
X57725Y117258D01*
X57457Y117052D01*
X57150Y117000D01*
G01X57457Y117827D02*
X57917Y117000D01*
G01X59107Y117465D02*
X59337Y117207D01*
X59605Y117052D01*
X59950Y117000D01*
X60295Y117103D01*
X60563Y117310D01*
X60755Y117672D01*
X60793Y118085D01*
X60717Y118498D01*
X60525Y118757D01*
X60257Y118963D01*
X59988Y119015D01*
X59720Y118963D01*
X59375Y118757D01*
X59490Y120100D01*
X60525D01*
G01X57150Y117000D02*
X56843Y117052D01*
X56575Y117258D01*
X56345Y117568D01*
X56192Y117930D01*
X56115Y118343D01*
Y118757D01*
X56192Y119170D01*
X56345Y119532D01*
X56575Y119842D01*
X56843Y120048D01*
X57150Y120100D01*
X57457Y120048D01*
X57725Y119842D01*
X57955Y119532D01*
X58108Y119170D01*
X58185Y118757D01*
Y118343D01*
X58108Y117930D01*
X57955Y117568D01*
X57725Y117258D01*
X57457Y117052D01*
X57150Y117000D01*
G01X57457Y117827D02*
X57917Y117000D01*
G01X59107Y117465D02*
X59337Y117207D01*
X59605Y117052D01*
X59950Y117000D01*
X60295Y117103D01*
X60563Y117310D01*
X60755Y117672D01*
X60793Y118085D01*
X60717Y118498D01*
X60525Y118757D01*
X60257Y118963D01*
X59988Y119015D01*
X59720Y118963D01*
X59375Y118757D01*
X59490Y120100D01*
X60525D01*
G01X42000Y112693D02*
X45100D01*
Y111927D01*
X44945Y111620D01*
X44738Y111390D01*
X44428Y111198D01*
X44067Y111045D01*
X43550Y111007D01*
X43033Y111045D01*
X42672Y111198D01*
X42362Y111390D01*
X42155Y111620D01*
X42000Y111927D01*
Y112693D01*
G01X44583Y109778D02*
X44893Y109548D01*
X45048Y109280D01*
X45100Y108973D01*
X44997Y108590D01*
X44738Y108322D01*
X44428Y108245D01*
X44118Y108283D01*
X43860Y108437D01*
X43343Y109203D01*
X42982Y109548D01*
X42465Y109778D01*
X42000Y109855D01*
Y108245D01*
G01Y112693D02*
X45100D01*
Y111927D01*
X44945Y111620D01*
X44738Y111390D01*
X44428Y111198D01*
X44067Y111045D01*
X43550Y111007D01*
X43033Y111045D01*
X42672Y111198D01*
X42362Y111390D01*
X42155Y111620D01*
X42000Y111927D01*
Y112693D01*
G01X44583Y109778D02*
X44893Y109548D01*
X45048Y109280D01*
X45100Y108973D01*
X44997Y108590D01*
X44738Y108322D01*
X44428Y108245D01*
X44118Y108283D01*
X43860Y108437D01*
X43343Y109203D01*
X42982Y109548D01*
X42465Y109778D01*
X42000Y109855D01*
Y108245D01*
G01X37383Y151000D02*
Y154100D01*
X38342D01*
X38648Y153945D01*
X38840Y153738D01*
X38917Y153325D01*
X38840Y152912D01*
X38610Y152653D01*
X38342Y152498D01*
X37383D01*
G01X38342D02*
X38917Y151000D01*
G01X40950D02*
Y154100D01*
X40490Y153480D01*
G01Y151000D02*
X41410D01*
G01X37383D02*
Y154100D01*
X38342D01*
X38648Y153945D01*
X38840Y153738D01*
X38917Y153325D01*
X38840Y152912D01*
X38610Y152653D01*
X38342Y152498D01*
X37383D01*
G01X38342D02*
X38917Y151000D01*
G01X40950D02*
Y154100D01*
X40490Y153480D01*
G01Y151000D02*
X41410D01*
G01X57383D02*
Y154100D01*
X58342D01*
X58648Y153945D01*
X58840Y153738D01*
X58917Y153325D01*
X58840Y152912D01*
X58610Y152653D01*
X58342Y152498D01*
X57383D01*
G01X58342D02*
X58917Y151000D01*
G01X60222Y153583D02*
X60452Y153893D01*
X60720Y154048D01*
X61027Y154100D01*
X61410Y153997D01*
X61678Y153738D01*
X61755Y153428D01*
X61717Y153118D01*
X61563Y152860D01*
X60797Y152343D01*
X60452Y151982D01*
X60222Y151465D01*
X60145Y151000D01*
X61755D01*
G01X57383D02*
Y154100D01*
X58342D01*
X58648Y153945D01*
X58840Y153738D01*
X58917Y153325D01*
X58840Y152912D01*
X58610Y152653D01*
X58342Y152498D01*
X57383D01*
G01X58342D02*
X58917Y151000D01*
G01X60222Y153583D02*
X60452Y153893D01*
X60720Y154048D01*
X61027Y154100D01*
X61410Y153997D01*
X61678Y153738D01*
X61755Y153428D01*
X61717Y153118D01*
X61563Y152860D01*
X60797Y152343D01*
X60452Y151982D01*
X60222Y151465D01*
X60145Y151000D01*
X61755D01*
G01X38150Y136000D02*
X37843Y136052D01*
X37575Y136258D01*
X37345Y136568D01*
X37192Y136930D01*
X37115Y137343D01*
Y137757D01*
X37192Y138170D01*
X37345Y138532D01*
X37575Y138842D01*
X37843Y139048D01*
X38150Y139100D01*
X38457Y139048D01*
X38725Y138842D01*
X38955Y138532D01*
X39108Y138170D01*
X39185Y137757D01*
Y137343D01*
X39108Y136930D01*
X38955Y136568D01*
X38725Y136258D01*
X38457Y136052D01*
X38150Y136000D01*
G01X38457Y136827D02*
X38917Y136000D01*
G01X40222Y138583D02*
X40452Y138893D01*
X40720Y139048D01*
X41027Y139100D01*
X41410Y138997D01*
X41678Y138738D01*
X41755Y138428D01*
X41717Y138118D01*
X41563Y137860D01*
X40797Y137343D01*
X40452Y136982D01*
X40222Y136465D01*
X40145Y136000D01*
X41755D01*
G01X38150D02*
X37843Y136052D01*
X37575Y136258D01*
X37345Y136568D01*
X37192Y136930D01*
X37115Y137343D01*
Y137757D01*
X37192Y138170D01*
X37345Y138532D01*
X37575Y138842D01*
X37843Y139048D01*
X38150Y139100D01*
X38457Y139048D01*
X38725Y138842D01*
X38955Y138532D01*
X39108Y138170D01*
X39185Y137757D01*
Y137343D01*
X39108Y136930D01*
X38955Y136568D01*
X38725Y136258D01*
X38457Y136052D01*
X38150Y136000D01*
G01X38457Y136827D02*
X38917Y136000D01*
G01X40222Y138583D02*
X40452Y138893D01*
X40720Y139048D01*
X41027Y139100D01*
X41410Y138997D01*
X41678Y138738D01*
X41755Y138428D01*
X41717Y138118D01*
X41563Y137860D01*
X40797Y137343D01*
X40452Y136982D01*
X40222Y136465D01*
X40145Y136000D01*
X41755D01*
G01X67000Y25617D02*
X70100D01*
Y24658D01*
X69945Y24352D01*
X69738Y24160D01*
X69325Y24083D01*
X68912Y24160D01*
X68653Y24390D01*
X68498Y24658D01*
Y25617D01*
G01Y24658D02*
X67000Y24083D01*
G01X69583Y22778D02*
X69893Y22548D01*
X70048Y22280D01*
X70100Y21973D01*
X69997Y21590D01*
X69738Y21322D01*
X69428Y21245D01*
X69118Y21283D01*
X68860Y21437D01*
X68343Y22203D01*
X67982Y22548D01*
X67465Y22778D01*
X67000Y22855D01*
Y21245D01*
G01Y19250D02*
X70100D01*
X69480Y19710D01*
G01X67000D02*
Y18790D01*
G01Y25617D02*
X70100D01*
Y24658D01*
X69945Y24352D01*
X69738Y24160D01*
X69325Y24083D01*
X68912Y24160D01*
X68653Y24390D01*
X68498Y24658D01*
Y25617D01*
G01Y24658D02*
X67000Y24083D01*
G01X69583Y22778D02*
X69893Y22548D01*
X70048Y22280D01*
X70100Y21973D01*
X69997Y21590D01*
X69738Y21322D01*
X69428Y21245D01*
X69118Y21283D01*
X68860Y21437D01*
X68343Y22203D01*
X67982Y22548D01*
X67465Y22778D01*
X67000Y22855D01*
Y21245D01*
G01Y19250D02*
X70100D01*
X69480Y19710D01*
G01X67000D02*
Y18790D01*
G01X80000Y26617D02*
X83100D01*
Y25658D01*
X82945Y25352D01*
X82738Y25160D01*
X82325Y25083D01*
X81912Y25160D01*
X81653Y25390D01*
X81498Y25658D01*
Y26617D01*
G01Y25658D02*
X80000Y25083D01*
G01X82583Y23778D02*
X82893Y23548D01*
X83048Y23280D01*
X83100Y22973D01*
X82997Y22590D01*
X82738Y22322D01*
X82428Y22245D01*
X82118Y22283D01*
X81860Y22437D01*
X81343Y23203D01*
X80982Y23548D01*
X80465Y23778D01*
X80000Y23855D01*
Y22245D01*
G01X82583Y20978D02*
X82893Y20748D01*
X83048Y20480D01*
X83100Y20173D01*
X82997Y19790D01*
X82738Y19522D01*
X82428Y19445D01*
X82118Y19483D01*
X81860Y19637D01*
X81343Y20403D01*
X80982Y20748D01*
X80465Y20978D01*
X80000Y21055D01*
Y19445D01*
G01Y26617D02*
X83100D01*
Y25658D01*
X82945Y25352D01*
X82738Y25160D01*
X82325Y25083D01*
X81912Y25160D01*
X81653Y25390D01*
X81498Y25658D01*
Y26617D01*
G01Y25658D02*
X80000Y25083D01*
G01X82583Y23778D02*
X82893Y23548D01*
X83048Y23280D01*
X83100Y22973D01*
X82997Y22590D01*
X82738Y22322D01*
X82428Y22245D01*
X82118Y22283D01*
X81860Y22437D01*
X81343Y23203D01*
X80982Y23548D01*
X80465Y23778D01*
X80000Y23855D01*
Y22245D01*
G01X82583Y20978D02*
X82893Y20748D01*
X83048Y20480D01*
X83100Y20173D01*
X82997Y19790D01*
X82738Y19522D01*
X82428Y19445D01*
X82118Y19483D01*
X81860Y19637D01*
X81343Y20403D01*
X80982Y20748D01*
X80465Y20978D01*
X80000Y21055D01*
Y19445D01*
G01X67383Y14000D02*
Y17100D01*
X68342D01*
X68648Y16945D01*
X68840Y16738D01*
X68917Y16325D01*
X68840Y15912D01*
X68610Y15653D01*
X68342Y15498D01*
X67383D01*
G01X68342D02*
X68917Y14000D01*
G01X70950D02*
Y17100D01*
X70490Y16480D01*
G01Y14000D02*
X71410D01*
G01X74210D02*
Y17100D01*
X72792Y14878D01*
X74708D01*
G01X67383Y14000D02*
Y17100D01*
X68342D01*
X68648Y16945D01*
X68840Y16738D01*
X68917Y16325D01*
X68840Y15912D01*
X68610Y15653D01*
X68342Y15498D01*
X67383D01*
G01X68342D02*
X68917Y14000D01*
G01X70950D02*
Y17100D01*
X70490Y16480D01*
G01Y14000D02*
X71410D01*
G01X74210D02*
Y17100D01*
X72792Y14878D01*
X74708D01*
G01X88383Y14000D02*
Y17100D01*
X89342D01*
X89648Y16945D01*
X89840Y16738D01*
X89917Y16325D01*
X89840Y15912D01*
X89610Y15653D01*
X89342Y15498D01*
X88383D01*
G01X89342D02*
X89917Y14000D01*
G01X91950D02*
Y17100D01*
X91490Y16480D01*
G01Y14000D02*
X92410D01*
G01X94673D02*
X94750Y14672D01*
X94865Y15240D01*
X95018Y15757D01*
X95210Y16325D01*
X95517Y17100D01*
X93983D01*
G01X88383Y14000D02*
Y17100D01*
X89342D01*
X89648Y16945D01*
X89840Y16738D01*
X89917Y16325D01*
X89840Y15912D01*
X89610Y15653D01*
X89342Y15498D01*
X88383D01*
G01X89342D02*
X89917Y14000D01*
G01X91950D02*
Y17100D01*
X91490Y16480D01*
G01Y14000D02*
X92410D01*
G01X94673D02*
X94750Y14672D01*
X94865Y15240D01*
X95018Y15757D01*
X95210Y16325D01*
X95517Y17100D01*
X93983D01*
G01X64000Y52850D02*
X64052Y53157D01*
X64258Y53425D01*
X64568Y53655D01*
X64930Y53808D01*
X65343Y53885D01*
X65757D01*
X66170Y53808D01*
X66532Y53655D01*
X66842Y53425D01*
X67048Y53157D01*
X67100Y52850D01*
X67048Y52543D01*
X66842Y52275D01*
X66532Y52045D01*
X66170Y51892D01*
X65757Y51815D01*
X65343D01*
X64930Y51892D01*
X64568Y52045D01*
X64258Y52275D01*
X64052Y52543D01*
X64000Y52850D01*
G01X64827Y52543D02*
X64000Y52083D01*
G01Y50050D02*
X67100D01*
X66480Y50510D01*
G01X64000D02*
Y49590D01*
G01X89383Y71000D02*
Y74100D01*
X90342D01*
X90648Y73945D01*
X90840Y73738D01*
X90917Y73325D01*
X90840Y72912D01*
X90610Y72653D01*
X90342Y72498D01*
X89383D01*
G01X90342D02*
X90917Y71000D01*
G01X92222Y73583D02*
X92452Y73893D01*
X92720Y74048D01*
X93027Y74100D01*
X93410Y73997D01*
X93678Y73738D01*
X93755Y73428D01*
X93717Y73118D01*
X93563Y72860D01*
X92797Y72343D01*
X92452Y71982D01*
X92222Y71465D01*
X92145Y71000D01*
X93755D01*
G01X95098Y71362D02*
X95367Y71103D01*
X95673Y71000D01*
X95980Y71103D01*
X96248Y71413D01*
X96440Y71878D01*
X96517Y72343D01*
Y72912D01*
X96440Y73377D01*
X96248Y73790D01*
X96018Y73997D01*
X95750Y74100D01*
X95443Y73997D01*
X95213Y73790D01*
X95060Y73480D01*
X94983Y73067D01*
X95060Y72705D01*
X95252Y72343D01*
X95482Y72137D01*
X95750Y72085D01*
X96057Y72188D01*
X96287Y72447D01*
X96517Y72912D01*
G01X89383Y71000D02*
Y74100D01*
X90342D01*
X90648Y73945D01*
X90840Y73738D01*
X90917Y73325D01*
X90840Y72912D01*
X90610Y72653D01*
X90342Y72498D01*
X89383D01*
G01X90342D02*
X90917Y71000D01*
G01X92222Y73583D02*
X92452Y73893D01*
X92720Y74048D01*
X93027Y74100D01*
X93410Y73997D01*
X93678Y73738D01*
X93755Y73428D01*
X93717Y73118D01*
X93563Y72860D01*
X92797Y72343D01*
X92452Y71982D01*
X92222Y71465D01*
X92145Y71000D01*
X93755D01*
G01X95098Y71362D02*
X95367Y71103D01*
X95673Y71000D01*
X95980Y71103D01*
X96248Y71413D01*
X96440Y71878D01*
X96517Y72343D01*
Y72912D01*
X96440Y73377D01*
X96248Y73790D01*
X96018Y73997D01*
X95750Y74100D01*
X95443Y73997D01*
X95213Y73790D01*
X95060Y73480D01*
X94983Y73067D01*
X95060Y72705D01*
X95252Y72343D01*
X95482Y72137D01*
X95750Y72085D01*
X96057Y72188D01*
X96287Y72447D01*
X96517Y72912D01*
G01X77383Y72000D02*
Y75100D01*
X78303D01*
X78610Y74945D01*
X78840Y74583D01*
X78917Y74170D01*
X78840Y73757D01*
X78648Y73447D01*
X78303Y73292D01*
X77383D01*
G01X80222Y74583D02*
X80452Y74893D01*
X80720Y75048D01*
X81027Y75100D01*
X81410Y74997D01*
X81678Y74738D01*
X81755Y74428D01*
X81717Y74118D01*
X81563Y73860D01*
X80797Y73343D01*
X80452Y72982D01*
X80222Y72465D01*
X80145Y72000D01*
X81755D01*
G01X78000Y117617D02*
X81100D01*
Y116658D01*
X80945Y116352D01*
X80738Y116160D01*
X80325Y116083D01*
X79912Y116160D01*
X79653Y116390D01*
X79498Y116658D01*
Y117617D01*
G01Y116658D02*
X78000Y116083D01*
G01X80583Y114778D02*
X80893Y114548D01*
X81048Y114280D01*
X81100Y113973D01*
X80997Y113590D01*
X80738Y113322D01*
X80428Y113245D01*
X80118Y113283D01*
X79860Y113437D01*
X79343Y114203D01*
X78982Y114548D01*
X78465Y114778D01*
X78000Y114855D01*
Y113245D01*
G01X78465Y112093D02*
X78207Y111863D01*
X78052Y111595D01*
X78000Y111250D01*
X78103Y110905D01*
X78310Y110637D01*
X78672Y110445D01*
X79085Y110407D01*
X79498Y110483D01*
X79757Y110675D01*
X79963Y110943D01*
X80015Y111212D01*
X79963Y111480D01*
X79757Y111825D01*
X81100Y111710D01*
Y110675D01*
G01X78000Y117617D02*
X81100D01*
Y116658D01*
X80945Y116352D01*
X80738Y116160D01*
X80325Y116083D01*
X79912Y116160D01*
X79653Y116390D01*
X79498Y116658D01*
Y117617D01*
G01Y116658D02*
X78000Y116083D01*
G01X80583Y114778D02*
X80893Y114548D01*
X81048Y114280D01*
X81100Y113973D01*
X80997Y113590D01*
X80738Y113322D01*
X80428Y113245D01*
X80118Y113283D01*
X79860Y113437D01*
X79343Y114203D01*
X78982Y114548D01*
X78465Y114778D01*
X78000Y114855D01*
Y113245D01*
G01X78465Y112093D02*
X78207Y111863D01*
X78052Y111595D01*
X78000Y111250D01*
X78103Y110905D01*
X78310Y110637D01*
X78672Y110445D01*
X79085Y110407D01*
X79498Y110483D01*
X79757Y110675D01*
X79963Y110943D01*
X80015Y111212D01*
X79963Y111480D01*
X79757Y111825D01*
X81100Y111710D01*
Y110675D01*
G01X78383Y151000D02*
Y154100D01*
X79342D01*
X79648Y153945D01*
X79840Y153738D01*
X79917Y153325D01*
X79840Y152912D01*
X79610Y152653D01*
X79342Y152498D01*
X78383D01*
G01X79342D02*
X79917Y151000D01*
G01X81222Y152292D02*
X81490Y152653D01*
X81720Y152860D01*
X82027Y152963D01*
X82295Y152860D01*
X82487Y152653D01*
X82640Y152343D01*
X82678Y151982D01*
X82640Y151672D01*
X82487Y151362D01*
X82257Y151103D01*
X81988Y151000D01*
X81682Y151103D01*
X81413Y151413D01*
X81260Y151878D01*
X81222Y152395D01*
X81298Y153067D01*
X81413Y153428D01*
X81605Y153790D01*
X81873Y154048D01*
X82142Y154100D01*
X82410Y153997D01*
X82602Y153738D01*
G01X78383Y151000D02*
Y154100D01*
X79342D01*
X79648Y153945D01*
X79840Y153738D01*
X79917Y153325D01*
X79840Y152912D01*
X79610Y152653D01*
X79342Y152498D01*
X78383D01*
G01X79342D02*
X79917Y151000D01*
G01X81222Y152292D02*
X81490Y152653D01*
X81720Y152860D01*
X82027Y152963D01*
X82295Y152860D01*
X82487Y152653D01*
X82640Y152343D01*
X82678Y151982D01*
X82640Y151672D01*
X82487Y151362D01*
X82257Y151103D01*
X81988Y151000D01*
X81682Y151103D01*
X81413Y151413D01*
X81260Y151878D01*
X81222Y152395D01*
X81298Y153067D01*
X81413Y153428D01*
X81605Y153790D01*
X81873Y154048D01*
X82142Y154100D01*
X82410Y153997D01*
X82602Y153738D01*
G01X69000Y130850D02*
X69052Y131157D01*
X69258Y131425D01*
X69568Y131655D01*
X69930Y131808D01*
X70343Y131885D01*
X70757D01*
X71170Y131808D01*
X71532Y131655D01*
X71842Y131425D01*
X72048Y131157D01*
X72100Y130850D01*
X72048Y130543D01*
X71842Y130275D01*
X71532Y130045D01*
X71170Y129892D01*
X70757Y129815D01*
X70343D01*
X69930Y129892D01*
X69568Y130045D01*
X69258Y130275D01*
X69052Y130543D01*
X69000Y130850D01*
G01X69827Y130543D02*
X69000Y130083D01*
G01Y128127D02*
X69672Y128050D01*
X70240Y127935D01*
X70757Y127782D01*
X71325Y127590D01*
X72100Y127283D01*
Y128817D01*
G01X69000Y130850D02*
X69052Y131157D01*
X69258Y131425D01*
X69568Y131655D01*
X69930Y131808D01*
X70343Y131885D01*
X70757D01*
X71170Y131808D01*
X71532Y131655D01*
X71842Y131425D01*
X72048Y131157D01*
X72100Y130850D01*
X72048Y130543D01*
X71842Y130275D01*
X71532Y130045D01*
X71170Y129892D01*
X70757Y129815D01*
X70343D01*
X69930Y129892D01*
X69568Y130045D01*
X69258Y130275D01*
X69052Y130543D01*
X69000Y130850D01*
G01X69827Y130543D02*
X69000Y130083D01*
G01Y128127D02*
X69672Y128050D01*
X70240Y127935D01*
X70757Y127782D01*
X71325Y127590D01*
X72100Y127283D01*
Y128817D01*
G01X99000Y21693D02*
X102100D01*
Y20927D01*
X101945Y20620D01*
X101738Y20390D01*
X101428Y20198D01*
X101067Y20045D01*
X100550Y20007D01*
X100033Y20045D01*
X99672Y20198D01*
X99362Y20390D01*
X99155Y20620D01*
X99000Y20927D01*
Y21693D01*
G01X99620Y18893D02*
X99258Y18663D01*
X99052Y18357D01*
X99000Y18012D01*
X99052Y17705D01*
X99310Y17398D01*
X99620Y17207D01*
X99930Y17168D01*
X100292Y17245D01*
X100550Y17513D01*
X100653Y17782D01*
Y18127D01*
G01Y17782D02*
X100808Y17552D01*
X101067Y17360D01*
X101377Y17283D01*
X101687Y17360D01*
X101945Y17552D01*
X102100Y17897D01*
X102048Y18242D01*
X101842Y18587D01*
G01X99000Y21693D02*
X102100D01*
Y20927D01*
X101945Y20620D01*
X101738Y20390D01*
X101428Y20198D01*
X101067Y20045D01*
X100550Y20007D01*
X100033Y20045D01*
X99672Y20198D01*
X99362Y20390D01*
X99155Y20620D01*
X99000Y20927D01*
Y21693D01*
G01X99620Y18893D02*
X99258Y18663D01*
X99052Y18357D01*
X99000Y18012D01*
X99052Y17705D01*
X99310Y17398D01*
X99620Y17207D01*
X99930Y17168D01*
X100292Y17245D01*
X100550Y17513D01*
X100653Y17782D01*
Y18127D01*
G01Y17782D02*
X100808Y17552D01*
X101067Y17360D01*
X101377Y17283D01*
X101687Y17360D01*
X101945Y17552D01*
X102100Y17897D01*
X102048Y18242D01*
X101842Y18587D01*
G01X118000Y22617D02*
X121100D01*
Y21658D01*
X120945Y21352D01*
X120738Y21160D01*
X120325Y21083D01*
X119912Y21160D01*
X119653Y21390D01*
X119498Y21658D01*
Y22617D01*
G01Y21658D02*
X118000Y21083D01*
G01X120583Y19778D02*
X120893Y19548D01*
X121048Y19280D01*
X121100Y18973D01*
X120997Y18590D01*
X120738Y18322D01*
X120428Y18245D01*
X120118Y18283D01*
X119860Y18437D01*
X119343Y19203D01*
X118982Y19548D01*
X118465Y19778D01*
X118000Y19855D01*
Y18245D01*
G01Y15790D02*
X121100D01*
X118878Y17208D01*
Y15292D01*
G01X118000Y22617D02*
X121100D01*
Y21658D01*
X120945Y21352D01*
X120738Y21160D01*
X120325Y21083D01*
X119912Y21160D01*
X119653Y21390D01*
X119498Y21658D01*
Y22617D01*
G01Y21658D02*
X118000Y21083D01*
G01X120583Y19778D02*
X120893Y19548D01*
X121048Y19280D01*
X121100Y18973D01*
X120997Y18590D01*
X120738Y18322D01*
X120428Y18245D01*
X120118Y18283D01*
X119860Y18437D01*
X119343Y19203D01*
X118982Y19548D01*
X118465Y19778D01*
X118000Y19855D01*
Y18245D01*
G01Y15790D02*
X121100D01*
X118878Y17208D01*
Y15292D01*
G01X109150Y71000D02*
X108843Y71052D01*
X108575Y71258D01*
X108345Y71568D01*
X108192Y71930D01*
X108115Y72343D01*
Y72757D01*
X108192Y73170D01*
X108345Y73532D01*
X108575Y73842D01*
X108843Y74048D01*
X109150Y74100D01*
X109457Y74048D01*
X109725Y73842D01*
X109955Y73532D01*
X110108Y73170D01*
X110185Y72757D01*
Y72343D01*
X110108Y71930D01*
X109955Y71568D01*
X109725Y71258D01*
X109457Y71052D01*
X109150Y71000D01*
G01X109457Y71827D02*
X109917Y71000D01*
G01X111950D02*
Y74100D01*
X111490Y73480D01*
G01Y71000D02*
X112410D01*
G01X114750D02*
Y74100D01*
X114290Y73480D01*
G01Y71000D02*
X115210D01*
G01X109150D02*
X108843Y71052D01*
X108575Y71258D01*
X108345Y71568D01*
X108192Y71930D01*
X108115Y72343D01*
Y72757D01*
X108192Y73170D01*
X108345Y73532D01*
X108575Y73842D01*
X108843Y74048D01*
X109150Y74100D01*
X109457Y74048D01*
X109725Y73842D01*
X109955Y73532D01*
X110108Y73170D01*
X110185Y72757D01*
Y72343D01*
X110108Y71930D01*
X109955Y71568D01*
X109725Y71258D01*
X109457Y71052D01*
X109150Y71000D01*
G01X109457Y71827D02*
X109917Y71000D01*
G01X111950D02*
Y74100D01*
X111490Y73480D01*
G01Y71000D02*
X112410D01*
G01X114750D02*
Y74100D01*
X114290Y73480D01*
G01Y71000D02*
X115210D01*
G01X97383Y101000D02*
Y104100D01*
X98342D01*
X98648Y103945D01*
X98840Y103738D01*
X98917Y103325D01*
X98840Y102912D01*
X98610Y102653D01*
X98342Y102498D01*
X97383D01*
G01X98342D02*
X98917Y101000D01*
G01X100950D02*
Y104100D01*
X100490Y103480D01*
G01Y101000D02*
X101410D01*
G01X102907Y101620D02*
X103137Y101258D01*
X103443Y101052D01*
X103788Y101000D01*
X104095Y101052D01*
X104402Y101310D01*
X104593Y101620D01*
X104632Y101930D01*
X104555Y102292D01*
X104287Y102550D01*
X104018Y102653D01*
X103673D01*
G01X104018D02*
X104248Y102808D01*
X104440Y103067D01*
X104517Y103377D01*
X104440Y103687D01*
X104248Y103945D01*
X103903Y104100D01*
X103558Y104048D01*
X103213Y103842D01*
G01X97383Y101000D02*
Y104100D01*
X98342D01*
X98648Y103945D01*
X98840Y103738D01*
X98917Y103325D01*
X98840Y102912D01*
X98610Y102653D01*
X98342Y102498D01*
X97383D01*
G01X98342D02*
X98917Y101000D01*
G01X100950D02*
Y104100D01*
X100490Y103480D01*
G01Y101000D02*
X101410D01*
G01X102907Y101620D02*
X103137Y101258D01*
X103443Y101052D01*
X103788Y101000D01*
X104095Y101052D01*
X104402Y101310D01*
X104593Y101620D01*
X104632Y101930D01*
X104555Y102292D01*
X104287Y102550D01*
X104018Y102653D01*
X103673D01*
G01X104018D02*
X104248Y102808D01*
X104440Y103067D01*
X104517Y103377D01*
X104440Y103687D01*
X104248Y103945D01*
X103903Y104100D01*
X103558Y104048D01*
X103213Y103842D01*
G01X106000Y98617D02*
X109100D01*
Y97658D01*
X108945Y97352D01*
X108738Y97160D01*
X108325Y97083D01*
X107912Y97160D01*
X107653Y97390D01*
X107498Y97658D01*
Y98617D01*
G01Y97658D02*
X106000Y97083D01*
G01X108583Y95778D02*
X108893Y95548D01*
X109048Y95280D01*
X109100Y94973D01*
X108997Y94590D01*
X108738Y94322D01*
X108428Y94245D01*
X108118Y94283D01*
X107860Y94437D01*
X107343Y95203D01*
X106982Y95548D01*
X106465Y95778D01*
X106000Y95855D01*
Y94245D01*
G01X107292Y92978D02*
X107653Y92710D01*
X107860Y92480D01*
X107963Y92173D01*
X107860Y91905D01*
X107653Y91713D01*
X107343Y91560D01*
X106982Y91522D01*
X106672Y91560D01*
X106362Y91713D01*
X106103Y91943D01*
X106000Y92212D01*
X106103Y92518D01*
X106413Y92787D01*
X106878Y92940D01*
X107395Y92978D01*
X108067Y92902D01*
X108428Y92787D01*
X108790Y92595D01*
X109048Y92327D01*
X109100Y92058D01*
X108997Y91790D01*
X108738Y91598D01*
G01X106000Y98617D02*
X109100D01*
Y97658D01*
X108945Y97352D01*
X108738Y97160D01*
X108325Y97083D01*
X107912Y97160D01*
X107653Y97390D01*
X107498Y97658D01*
Y98617D01*
G01Y97658D02*
X106000Y97083D01*
G01X108583Y95778D02*
X108893Y95548D01*
X109048Y95280D01*
X109100Y94973D01*
X108997Y94590D01*
X108738Y94322D01*
X108428Y94245D01*
X108118Y94283D01*
X107860Y94437D01*
X107343Y95203D01*
X106982Y95548D01*
X106465Y95778D01*
X106000Y95855D01*
Y94245D01*
G01X107292Y92978D02*
X107653Y92710D01*
X107860Y92480D01*
X107963Y92173D01*
X107860Y91905D01*
X107653Y91713D01*
X107343Y91560D01*
X106982Y91522D01*
X106672Y91560D01*
X106362Y91713D01*
X106103Y91943D01*
X106000Y92212D01*
X106103Y92518D01*
X106413Y92787D01*
X106878Y92940D01*
X107395Y92978D01*
X108067Y92902D01*
X108428Y92787D01*
X108790Y92595D01*
X109048Y92327D01*
X109100Y92058D01*
X108997Y91790D01*
X108738Y91598D01*
G01X118383Y110000D02*
Y113100D01*
X119303D01*
X119610Y112945D01*
X119840Y112583D01*
X119917Y112170D01*
X119840Y111757D01*
X119648Y111447D01*
X119303Y111292D01*
X118383D01*
G01X121950Y110000D02*
Y113100D01*
X121490Y112480D01*
G01Y110000D02*
X122410D01*
G01X96383Y125000D02*
Y128100D01*
X97342D01*
X97648Y127945D01*
X97840Y127738D01*
X97917Y127325D01*
X97840Y126912D01*
X97610Y126653D01*
X97342Y126498D01*
X96383D01*
G01X97342D02*
X97917Y125000D01*
G01X99950D02*
Y128100D01*
X99490Y127480D01*
G01Y125000D02*
X100410D01*
G01X102022Y127583D02*
X102252Y127893D01*
X102520Y128048D01*
X102827Y128100D01*
X103210Y127997D01*
X103478Y127738D01*
X103555Y127428D01*
X103517Y127118D01*
X103363Y126860D01*
X102597Y126343D01*
X102252Y125982D01*
X102022Y125465D01*
X101945Y125000D01*
X103555D01*
G01X96383D02*
Y128100D01*
X97342D01*
X97648Y127945D01*
X97840Y127738D01*
X97917Y127325D01*
X97840Y126912D01*
X97610Y126653D01*
X97342Y126498D01*
X96383D01*
G01X97342D02*
X97917Y125000D01*
G01X99950D02*
Y128100D01*
X99490Y127480D01*
G01Y125000D02*
X100410D01*
G01X102022Y127583D02*
X102252Y127893D01*
X102520Y128048D01*
X102827Y128100D01*
X103210Y127997D01*
X103478Y127738D01*
X103555Y127428D01*
X103517Y127118D01*
X103363Y126860D01*
X102597Y126343D01*
X102252Y125982D01*
X102022Y125465D01*
X101945Y125000D01*
X103555D01*
G01X104150Y145000D02*
X103843Y145052D01*
X103575Y145258D01*
X103345Y145568D01*
X103192Y145930D01*
X103115Y146343D01*
Y146757D01*
X103192Y147170D01*
X103345Y147532D01*
X103575Y147842D01*
X103843Y148048D01*
X104150Y148100D01*
X104457Y148048D01*
X104725Y147842D01*
X104955Y147532D01*
X105108Y147170D01*
X105185Y146757D01*
Y146343D01*
X105108Y145930D01*
X104955Y145568D01*
X104725Y145258D01*
X104457Y145052D01*
X104150Y145000D01*
G01X104457Y145827D02*
X104917Y145000D01*
G01X106950D02*
X107218Y145052D01*
X107525Y145207D01*
X107717Y145465D01*
X107793Y145827D01*
X107717Y146188D01*
X107487Y146498D01*
X107142Y146653D01*
X106758D01*
X106528Y146757D01*
X106337Y147015D01*
X106260Y147377D01*
X106375Y147738D01*
X106643Y147997D01*
X106950Y148100D01*
X107257Y147997D01*
X107525Y147738D01*
X107640Y147377D01*
X107563Y147015D01*
X107372Y146757D01*
X107142Y146653D01*
X106758D01*
X106413Y146498D01*
X106183Y146188D01*
X106107Y145827D01*
X106183Y145465D01*
X106375Y145207D01*
X106682Y145052D01*
X106950Y145000D01*
G01X104150D02*
X103843Y145052D01*
X103575Y145258D01*
X103345Y145568D01*
X103192Y145930D01*
X103115Y146343D01*
Y146757D01*
X103192Y147170D01*
X103345Y147532D01*
X103575Y147842D01*
X103843Y148048D01*
X104150Y148100D01*
X104457Y148048D01*
X104725Y147842D01*
X104955Y147532D01*
X105108Y147170D01*
X105185Y146757D01*
Y146343D01*
X105108Y145930D01*
X104955Y145568D01*
X104725Y145258D01*
X104457Y145052D01*
X104150Y145000D01*
G01X104457Y145827D02*
X104917Y145000D01*
G01X106950D02*
X107218Y145052D01*
X107525Y145207D01*
X107717Y145465D01*
X107793Y145827D01*
X107717Y146188D01*
X107487Y146498D01*
X107142Y146653D01*
X106758D01*
X106528Y146757D01*
X106337Y147015D01*
X106260Y147377D01*
X106375Y147738D01*
X106643Y147997D01*
X106950Y148100D01*
X107257Y147997D01*
X107525Y147738D01*
X107640Y147377D01*
X107563Y147015D01*
X107372Y146757D01*
X107142Y146653D01*
X106758D01*
X106413Y146498D01*
X106183Y146188D01*
X106107Y145827D01*
X106183Y145465D01*
X106375Y145207D01*
X106682Y145052D01*
X106950Y145000D01*
G01X127133Y6920D02*
X127325Y6610D01*
X127555Y6403D01*
X127823Y6300D01*
X128130Y6403D01*
X128360Y6610D01*
X128590Y6920D01*
X128667Y7333D01*
Y9400D01*
G01X129972Y8883D02*
X130202Y9193D01*
X130470Y9348D01*
X130777Y9400D01*
X131160Y9297D01*
X131428Y9038D01*
X131505Y8728D01*
X131467Y8418D01*
X131313Y8160D01*
X130547Y7643D01*
X130202Y7282D01*
X129972Y6765D01*
X129895Y6300D01*
X131505D01*
G01X127133Y6920D02*
X127325Y6610D01*
X127555Y6403D01*
X127823Y6300D01*
X128130Y6403D01*
X128360Y6610D01*
X128590Y6920D01*
X128667Y7333D01*
Y9400D01*
G01X129972Y8883D02*
X130202Y9193D01*
X130470Y9348D01*
X130777Y9400D01*
X131160Y9297D01*
X131428Y9038D01*
X131505Y8728D01*
X131467Y8418D01*
X131313Y8160D01*
X130547Y7643D01*
X130202Y7282D01*
X129972Y6765D01*
X129895Y6300D01*
X131505D01*
G01X127133Y6920D02*
X127325Y6610D01*
X127555Y6403D01*
X127823Y6300D01*
X128130Y6403D01*
X128360Y6610D01*
X128590Y6920D01*
X128667Y7333D01*
Y9400D01*
G01X129972Y8883D02*
X130202Y9193D01*
X130470Y9348D01*
X130777Y9400D01*
X131160Y9297D01*
X131428Y9038D01*
X131505Y8728D01*
X131467Y8418D01*
X131313Y8160D01*
X130547Y7643D01*
X130202Y7282D01*
X129972Y6765D01*
X129895Y6300D01*
X131505D01*
G01X127000Y43850D02*
X127052Y44157D01*
X127258Y44425D01*
X127568Y44655D01*
X127930Y44808D01*
X128343Y44885D01*
X128757D01*
X129170Y44808D01*
X129532Y44655D01*
X129842Y44425D01*
X130048Y44157D01*
X130100Y43850D01*
X130048Y43543D01*
X129842Y43275D01*
X129532Y43045D01*
X129170Y42892D01*
X128757Y42815D01*
X128343D01*
X127930Y42892D01*
X127568Y43045D01*
X127258Y43275D01*
X127052Y43543D01*
X127000Y43850D01*
G01X127827Y43543D02*
X127000Y43083D01*
G01Y41050D02*
X130100D01*
X129480Y41510D01*
G01X127000D02*
Y40590D01*
G01X130100Y38250D02*
X129997Y38557D01*
X129738Y38787D01*
X129428Y38940D01*
X129015Y39055D01*
X128550Y39093D01*
X128085Y39055D01*
X127672Y38940D01*
X127362Y38787D01*
X127103Y38557D01*
X127000Y38250D01*
X127103Y37943D01*
X127362Y37713D01*
X127672Y37560D01*
X128085Y37445D01*
X128550Y37407D01*
X129015Y37445D01*
X129428Y37560D01*
X129738Y37713D01*
X129997Y37943D01*
X130100Y38250D01*
G01X127000Y43850D02*
X127052Y44157D01*
X127258Y44425D01*
X127568Y44655D01*
X127930Y44808D01*
X128343Y44885D01*
X128757D01*
X129170Y44808D01*
X129532Y44655D01*
X129842Y44425D01*
X130048Y44157D01*
X130100Y43850D01*
X130048Y43543D01*
X129842Y43275D01*
X129532Y43045D01*
X129170Y42892D01*
X128757Y42815D01*
X128343D01*
X127930Y42892D01*
X127568Y43045D01*
X127258Y43275D01*
X127052Y43543D01*
X127000Y43850D01*
G01X127827Y43543D02*
X127000Y43083D01*
G01Y41050D02*
X130100D01*
X129480Y41510D01*
G01X127000D02*
Y40590D01*
G01X130100Y38250D02*
X129997Y38557D01*
X129738Y38787D01*
X129428Y38940D01*
X129015Y39055D01*
X128550Y39093D01*
X128085Y39055D01*
X127672Y38940D01*
X127362Y38787D01*
X127103Y38557D01*
X127000Y38250D01*
X127103Y37943D01*
X127362Y37713D01*
X127672Y37560D01*
X128085Y37445D01*
X128550Y37407D01*
X129015Y37445D01*
X129428Y37560D01*
X129738Y37713D01*
X129997Y37943D01*
X130100Y38250D01*
G01X135383Y79000D02*
Y82100D01*
X136342D01*
X136648Y81945D01*
X136840Y81738D01*
X136917Y81325D01*
X136840Y80912D01*
X136610Y80653D01*
X136342Y80498D01*
X135383D01*
G01X136342D02*
X136917Y79000D01*
G01X138873D02*
X138950Y79672D01*
X139065Y80240D01*
X139218Y80757D01*
X139410Y81325D01*
X139717Y82100D01*
X138183D01*
G01X135383Y79000D02*
Y82100D01*
X136342D01*
X136648Y81945D01*
X136840Y81738D01*
X136917Y81325D01*
X136840Y80912D01*
X136610Y80653D01*
X136342Y80498D01*
X135383D01*
G01X136342D02*
X136917Y79000D01*
G01X138873D02*
X138950Y79672D01*
X139065Y80240D01*
X139218Y80757D01*
X139410Y81325D01*
X139717Y82100D01*
X138183D01*
G01X122150Y89000D02*
X121843Y89052D01*
X121575Y89258D01*
X121345Y89568D01*
X121192Y89930D01*
X121115Y90343D01*
Y90757D01*
X121192Y91170D01*
X121345Y91532D01*
X121575Y91842D01*
X121843Y92048D01*
X122150Y92100D01*
X122457Y92048D01*
X122725Y91842D01*
X122955Y91532D01*
X123108Y91170D01*
X123185Y90757D01*
Y90343D01*
X123108Y89930D01*
X122955Y89568D01*
X122725Y89258D01*
X122457Y89052D01*
X122150Y89000D01*
G01X122457Y89827D02*
X122917Y89000D01*
G01X125410D02*
Y92100D01*
X123992Y89878D01*
X125908D01*
G01X122150Y89000D02*
X121843Y89052D01*
X121575Y89258D01*
X121345Y89568D01*
X121192Y89930D01*
X121115Y90343D01*
Y90757D01*
X121192Y91170D01*
X121345Y91532D01*
X121575Y91842D01*
X121843Y92048D01*
X122150Y92100D01*
X122457Y92048D01*
X122725Y91842D01*
X122955Y91532D01*
X123108Y91170D01*
X123185Y90757D01*
Y90343D01*
X123108Y89930D01*
X122955Y89568D01*
X122725Y89258D01*
X122457Y89052D01*
X122150Y89000D01*
G01X122457Y89827D02*
X122917Y89000D01*
G01X125410D02*
Y92100D01*
X123992Y89878D01*
X125908D01*
G01X143150Y67000D02*
X142843Y67052D01*
X142575Y67258D01*
X142345Y67568D01*
X142192Y67930D01*
X142115Y68343D01*
Y68757D01*
X142192Y69170D01*
X142345Y69532D01*
X142575Y69842D01*
X142843Y70048D01*
X143150Y70100D01*
X143457Y70048D01*
X143725Y69842D01*
X143955Y69532D01*
X144108Y69170D01*
X144185Y68757D01*
Y68343D01*
X144108Y67930D01*
X143955Y67568D01*
X143725Y67258D01*
X143457Y67052D01*
X143150Y67000D01*
G01X143457Y67827D02*
X143917Y67000D01*
G01X145298Y67362D02*
X145567Y67103D01*
X145873Y67000D01*
X146180Y67103D01*
X146448Y67413D01*
X146640Y67878D01*
X146717Y68343D01*
Y68912D01*
X146640Y69377D01*
X146448Y69790D01*
X146218Y69997D01*
X145950Y70100D01*
X145643Y69997D01*
X145413Y69790D01*
X145260Y69480D01*
X145183Y69067D01*
X145260Y68705D01*
X145452Y68343D01*
X145682Y68137D01*
X145950Y68085D01*
X146257Y68188D01*
X146487Y68447D01*
X146717Y68912D01*
G01X143150Y67000D02*
X142843Y67052D01*
X142575Y67258D01*
X142345Y67568D01*
X142192Y67930D01*
X142115Y68343D01*
Y68757D01*
X142192Y69170D01*
X142345Y69532D01*
X142575Y69842D01*
X142843Y70048D01*
X143150Y70100D01*
X143457Y70048D01*
X143725Y69842D01*
X143955Y69532D01*
X144108Y69170D01*
X144185Y68757D01*
Y68343D01*
X144108Y67930D01*
X143955Y67568D01*
X143725Y67258D01*
X143457Y67052D01*
X143150Y67000D01*
G01X143457Y67827D02*
X143917Y67000D01*
G01X145298Y67362D02*
X145567Y67103D01*
X145873Y67000D01*
X146180Y67103D01*
X146448Y67413D01*
X146640Y67878D01*
X146717Y68343D01*
Y68912D01*
X146640Y69377D01*
X146448Y69790D01*
X146218Y69997D01*
X145950Y70100D01*
X145643Y69997D01*
X145413Y69790D01*
X145260Y69480D01*
X145183Y69067D01*
X145260Y68705D01*
X145452Y68343D01*
X145682Y68137D01*
X145950Y68085D01*
X146257Y68188D01*
X146487Y68447D01*
X146717Y68912D01*
G01X135383Y92000D02*
Y95100D01*
X136342D01*
X136648Y94945D01*
X136840Y94738D01*
X136917Y94325D01*
X136840Y93912D01*
X136610Y93653D01*
X136342Y93498D01*
X135383D01*
G01X136342D02*
X136917Y92000D01*
G01X138107Y92465D02*
X138337Y92207D01*
X138605Y92052D01*
X138950Y92000D01*
X139295Y92103D01*
X139563Y92310D01*
X139755Y92672D01*
X139793Y93085D01*
X139717Y93498D01*
X139525Y93757D01*
X139257Y93963D01*
X138988Y94015D01*
X138720Y93963D01*
X138375Y93757D01*
X138490Y95100D01*
X139525D01*
G01X135383Y92000D02*
Y95100D01*
X136342D01*
X136648Y94945D01*
X136840Y94738D01*
X136917Y94325D01*
X136840Y93912D01*
X136610Y93653D01*
X136342Y93498D01*
X135383D01*
G01X136342D02*
X136917Y92000D01*
G01X138107Y92465D02*
X138337Y92207D01*
X138605Y92052D01*
X138950Y92000D01*
X139295Y92103D01*
X139563Y92310D01*
X139755Y92672D01*
X139793Y93085D01*
X139717Y93498D01*
X139525Y93757D01*
X139257Y93963D01*
X138988Y94015D01*
X138720Y93963D01*
X138375Y93757D01*
X138490Y95100D01*
X139525D01*
G01X133383Y124000D02*
Y127100D01*
X134342D01*
X134648Y126945D01*
X134840Y126738D01*
X134917Y126325D01*
X134840Y125912D01*
X134610Y125653D01*
X134342Y125498D01*
X133383D01*
G01X134342D02*
X134917Y124000D01*
G01X136950D02*
Y127100D01*
X136490Y126480D01*
G01Y124000D02*
X137410D01*
G01X138907Y124465D02*
X139137Y124207D01*
X139405Y124052D01*
X139750Y124000D01*
X140095Y124103D01*
X140363Y124310D01*
X140555Y124672D01*
X140593Y125085D01*
X140517Y125498D01*
X140325Y125757D01*
X140057Y125963D01*
X139788Y126015D01*
X139520Y125963D01*
X139175Y125757D01*
X139290Y127100D01*
X140325D01*
G01X133383Y124000D02*
Y127100D01*
X134342D01*
X134648Y126945D01*
X134840Y126738D01*
X134917Y126325D01*
X134840Y125912D01*
X134610Y125653D01*
X134342Y125498D01*
X133383D01*
G01X134342D02*
X134917Y124000D01*
G01X136950D02*
Y127100D01*
X136490Y126480D01*
G01Y124000D02*
X137410D01*
G01X138907Y124465D02*
X139137Y124207D01*
X139405Y124052D01*
X139750Y124000D01*
X140095Y124103D01*
X140363Y124310D01*
X140555Y124672D01*
X140593Y125085D01*
X140517Y125498D01*
X140325Y125757D01*
X140057Y125963D01*
X139788Y126015D01*
X139520Y125963D01*
X139175Y125757D01*
X139290Y127100D01*
X140325D01*
G01X144383Y124000D02*
Y127100D01*
X145342D01*
X145648Y126945D01*
X145840Y126738D01*
X145917Y126325D01*
X145840Y125912D01*
X145610Y125653D01*
X145342Y125498D01*
X144383D01*
G01X145342D02*
X145917Y124000D01*
G01X147950D02*
Y127100D01*
X147490Y126480D01*
G01Y124000D02*
X148410D01*
G01X150022Y125292D02*
X150290Y125653D01*
X150520Y125860D01*
X150827Y125963D01*
X151095Y125860D01*
X151287Y125653D01*
X151440Y125343D01*
X151478Y124982D01*
X151440Y124672D01*
X151287Y124362D01*
X151057Y124103D01*
X150788Y124000D01*
X150482Y124103D01*
X150213Y124413D01*
X150060Y124878D01*
X150022Y125395D01*
X150098Y126067D01*
X150213Y126428D01*
X150405Y126790D01*
X150673Y127048D01*
X150942Y127100D01*
X151210Y126997D01*
X151402Y126738D01*
G01X144383Y124000D02*
Y127100D01*
X145342D01*
X145648Y126945D01*
X145840Y126738D01*
X145917Y126325D01*
X145840Y125912D01*
X145610Y125653D01*
X145342Y125498D01*
X144383D01*
G01X145342D02*
X145917Y124000D01*
G01X147950D02*
Y127100D01*
X147490Y126480D01*
G01Y124000D02*
X148410D01*
G01X150022Y125292D02*
X150290Y125653D01*
X150520Y125860D01*
X150827Y125963D01*
X151095Y125860D01*
X151287Y125653D01*
X151440Y125343D01*
X151478Y124982D01*
X151440Y124672D01*
X151287Y124362D01*
X151057Y124103D01*
X150788Y124000D01*
X150482Y124103D01*
X150213Y124413D01*
X150060Y124878D01*
X150022Y125395D01*
X150098Y126067D01*
X150213Y126428D01*
X150405Y126790D01*
X150673Y127048D01*
X150942Y127100D01*
X151210Y126997D01*
X151402Y126738D01*
G54D11*
G01X28050Y138500D02*
Y153500D01*
G01X6550D02*
Y138500D01*
G01D02*
X28050D01*
G01Y153500D02*
X6550D01*
G01X132950Y20500D02*
Y5500D01*
G01D02*
X154450D01*
G01Y20500D02*
X132950D01*
G01X154450Y5500D02*
Y20500D01*
G54D12*
G01X13000Y130055D02*
G03Y129661I0J-197D01*
G01D02*
G03Y130055I0J197D01*
G01X109000Y28055D02*
G03Y27661I0J-197D01*
G01D02*
G03Y28055I0J197D01*
G54D13*
G01X114358Y38008D02*
G02I-492J0D01*
G54D14*
G01X14000Y90118D02*
Y85882D01*
G01Y77118D02*
Y72882D01*
G01Y97882D02*
Y102118D01*
G01X34882Y23000D02*
X39118D01*
G01X47882D02*
X52118D01*
G01X59882D02*
X64118D01*
G01X31000Y7882D02*
Y12118D01*
G01X50000D02*
Y7882D01*
G01X33882Y59000D02*
X38118D01*
G01X54114Y49291D02*
Y60709D01*
G01X55886Y49291D02*
X54114D01*
G01X55886Y60709D02*
Y49291D01*
G01X46398Y34094D02*
X42264D01*
G01X40886Y45709D02*
Y34291D01*
G01X39114Y45709D02*
X40886D01*
G01X39114Y34291D02*
Y45709D01*
G01X40886Y34291D02*
X39114D01*
G01X43398Y71094D02*
X39264D01*
G01X37886Y82709D02*
Y71291D01*
G01X36114Y82709D02*
X37886D01*
G01X36114Y71291D02*
Y82709D01*
G01X37886Y71291D02*
X36114D01*
G01X51094Y70602D02*
Y74736D01*
G01X62709Y76114D02*
X51291D01*
G01Y77886D02*
X62709D01*
G01X51291Y76114D02*
Y77886D01*
G01X48602Y60906D02*
X52736D01*
G01X54114Y60709D02*
X55886D01*
G01X32000Y115118D02*
Y110882D01*
G01X51118Y92000D02*
X46882D01*
G01X47094Y102602D02*
Y106736D01*
G01X58709Y108114D02*
X47291D01*
G01X58709Y109886D02*
Y108114D01*
G01X47291Y109886D02*
X58709D01*
G01X47291Y108114D02*
Y109886D01*
G01X40000Y143882D02*
Y148118D01*
G01X60000Y143882D02*
Y148118D01*
G01X45906Y134398D02*
Y130264D01*
G01X34291Y128886D02*
X45709D01*
G01X34291Y127114D02*
Y128886D01*
G01X45709Y127114D02*
X34291D01*
G01X45709Y128886D02*
Y127114D01*
G01X59886Y133709D02*
Y122291D01*
G01X58114Y133709D02*
X59886D01*
G01X58114Y122291D02*
Y133709D01*
G01X59886Y122291D02*
X58114D01*
G01X72882Y23000D02*
X77118D01*
G01X85882D02*
X90118D01*
G01X71000Y12118D02*
Y7882D01*
G01X62709Y77886D02*
Y76114D01*
G01X84792Y72197D02*
G02I-178J0D01*
G01X71142Y97858D02*
Y80142D01*
G01X88858D02*
Y97858D01*
G01X83882Y114000D02*
X88118D01*
G01X66118Y92000D02*
X61882D01*
G01X81000Y143882D02*
Y148118D01*
G01X65398Y122094D02*
X61264D01*
G01X87398Y125094D02*
X83264D01*
G01X81886Y136709D02*
Y125291D01*
G01X80114Y136709D02*
X81886D01*
G01X80114Y125291D02*
Y136709D01*
G01X81886Y125291D02*
X80114D01*
G01X91000Y12118D02*
Y7882D01*
G01X102252Y38205D02*
X95953D01*
G01X102252Y63795D02*
Y38205D01*
G01X91882Y82000D02*
X96118D01*
G01X118398Y76094D02*
X114264D01*
G01X112886Y87709D02*
Y76291D01*
G01X111114Y87709D02*
X112886D01*
G01X111114Y76291D02*
Y87709D01*
G01X112886Y76291D02*
X111114D01*
G01X95953Y63795D02*
X102252D01*
G01X101000Y117882D02*
Y122118D01*
G01Y111118D02*
Y106882D01*
G01X99000Y97118D02*
Y92882D01*
G01X118094Y94602D02*
Y98736D01*
G01X129709Y100114D02*
X118291D01*
G01Y101886D02*
X129709D01*
G01X118291Y100114D02*
Y101886D01*
G01X94602Y143906D02*
X98736D01*
G01X100114Y132291D02*
Y143709D01*
G01X101886Y132291D02*
X100114D01*
G01X101886Y143709D02*
Y132291D01*
G01X100114Y143709D02*
X101886D01*
G01X112142Y139858D02*
Y122142D01*
G01X128118Y18000D02*
X123882D01*
G01X139291Y58886D02*
X150709D01*
G01X139291Y57114D02*
Y58886D01*
G01X150709Y57114D02*
X139291D01*
G01X132094Y33602D02*
Y37736D01*
G01X143709Y39114D02*
X132291D01*
G01X143709Y40886D02*
Y39114D01*
G01X132291Y40886D02*
X143709D01*
G01X132291Y39114D02*
Y40886D01*
G01X138000Y85882D02*
Y90118D01*
G01Y77118D02*
Y72882D01*
G01X135882Y116000D02*
X140118D01*
G01X145882D02*
X150118D01*
G01X129709Y101886D02*
Y100114D01*
G01X125792Y114197D02*
G02I-178J0D01*
G01X129858Y122142D02*
Y139858D01*
G01X150906Y64398D02*
Y60264D01*
G01X150709Y58886D02*
Y57114D01*
M02*
