G04 ================== begin FILE IDENTIFICATION RECORD ==================*
G04 Layout Name:  PROIECT1_ENACHEVICTOR.brd*
G04 Film Name:    TOP*
G04 File Format:  Gerber RS274X*
G04 File Origin:  Cadence Allegro 24.1-S001*
G04 Origin Date:  Sat Dec  7 16:34:57 2024*
G04 *
G04 Layer:  ETCH/TOP*
G04 Layer:  PIN/TOP*
G04 Layer:  VIA CLASS/TOP*
G04 *
G04 Offset:    (0.00 0.00)*
G04 Mirror:    No*
G04 Mode:      Positive*
G04 Rotation:  0*
G04 FullContactRelief:  No*
G04 UndefLineWidth:     0.10*
G04 ================== end FILE IDENTIFICATION RECORD ====================*
%FSLAX25Y25*MOIN*%
%IR0*IPPOS*OFA0.00000B0.00000*MIA0B0*SFA1.00000B1.00000*%
%ADD21R,.114X.042*%
%ADD14R,.076X.12*%
%ADD10C,.04*%
%ADD12C,.034*%
%ADD19R,.05512X.05512*%
%ADD18R,.24X.22*%
%ADD16R,.042X.03*%
%ADD17R,.03X.042*%
%ADD13R,.05X.06*%
%ADD15R,.065X.045*%
%ADD11R,.045X.065*%
%ADD20R,.084X.056*%
%ADD22C,.02*%
%ADD23C,.013*%
%ADD24C,.016*%
%ADD25C,.026*%
G75*
%LPD*%
G75*
G36*
G01X68000Y66887D02*
X68113Y67000D01*
X117887D01*
X118000Y66887D01*
Y62218D01*
X115546D01*
X115492Y62332D01*
G03X115039Y62618I-453J-216D01*
G01X103639D01*
G03X103138Y62116I0J-501D01*
G01Y57916D01*
G03X103639Y57414I502J0D01*
G01X115039D01*
G03X115492Y57700I0J502D01*
G01X115546Y57814D01*
X118000D01*
Y44202D01*
X116265D01*
G03X116011Y44187I3J-2202D01*
G01X116000Y44186D01*
X115546D01*
X115492Y44300D01*
G03X115039Y44586I-453J-216D01*
G01X103639D01*
G03X103138Y44084I0J-501D01*
G01Y39884D01*
G03X103639Y39382I502J0D01*
G01X115039D01*
G03X115492Y39668I0J502D01*
G01X115546Y39782D01*
X116249D01*
G03X116503Y39797I-3J2202D01*
G01X116514Y39798D01*
X118000D01*
Y35000D01*
X68000D01*
Y66887D01*
G37*
%LPC*%
G75*
G36*
G01X103138Y48900D02*
Y53100D01*
G02X103639Y53602I501J1D01*
G01X115039D01*
G02X115540Y53100I-1J-502D01*
G01Y48900D01*
G02X115039Y48398I-501J-1D01*
G01X103639D01*
G02X103138Y48900I1J502D01*
G37*
G36*
G01X70262Y40000D02*
Y62000D01*
G02X70764Y62502I502J0D01*
G01X94764D01*
G02X95266Y62000I0J-502D01*
G01Y40000D01*
G02X94764Y39498I-502J0D01*
G01X70764D01*
G02X70262Y40000I0J502D01*
G37*
%LPD*%
G75*
G54D10*
X20000Y20000D03*
X140000Y140000D03*
G54D20*
X80000Y99827D03*
X121000Y141827D03*
G54D11*
X27260Y10000D03*
X17740Y88000D03*
X10260D03*
X17740Y75000D03*
X10260D03*
Y100000D03*
X17740D03*
X28260Y113000D03*
X34740Y10000D03*
X53740D03*
X46260D03*
X35740Y113000D03*
X36260Y146000D03*
X43740D03*
X56260D03*
X74740Y10000D03*
X67260D03*
X87260D03*
X63740Y146000D03*
X77260D03*
X84740D03*
X94740Y10000D03*
X97260Y120000D03*
X104740D03*
Y109000D03*
X97260D03*
X102740Y95000D03*
X95260D03*
X134260Y88000D03*
X141740D03*
Y75000D03*
X134260D03*
G54D12*
X27260Y16740D03*
X27000Y54000D03*
Y62000D03*
X15459Y66554D03*
X28000Y96000D03*
X30000Y128000D03*
X18000Y135000D03*
X40000Y12000D03*
X59000Y14000D03*
X53740Y43740D03*
X62000Y35480D03*
X43000Y61000D03*
X62000Y44000D03*
X45000Y67000D03*
X81000Y10000D03*
X82000Y15000D03*
X82764Y69764D03*
X66000Y74000D03*
X71000Y103000D03*
X75000Y118000D03*
X69000Y137000D03*
X101000Y84000D03*
X119000Y72000D03*
X109000Y102000D03*
X100000Y150000D03*
X123000Y31000D03*
X152000Y47000D03*
X133000Y58000D03*
X151000Y36000D03*
X148740Y72740D03*
X129000Y67000D03*
X136000Y103000D03*
X141000Y97000D03*
G54D21*
X109339Y60016D03*
Y51000D03*
Y41984D03*
G54D22*
G01X50669Y51260D02*
X47069D01*
X45809Y50000D01*
X31000D01*
X27000Y54000D01*
G01X36260Y132331D02*
X30669D01*
X29000Y134000D01*
G01D02*
X36260Y141260D01*
Y146000D01*
G01X29000Y134000D02*
Y129000D01*
X30000Y128000D01*
G01X13000Y125626D02*
Y135000D01*
G01D02*
Y137500D01*
X12000Y138500D01*
Y146000D01*
G01X18000Y135000D02*
X13000D01*
G01X46260Y10000D02*
X46000Y9740D01*
Y7000D01*
X44000Y5000D01*
X36740D01*
X34740Y7000D01*
Y10000D01*
G01X46260D02*
X42000D01*
X40000Y12000D01*
G01X37000Y26740D02*
X50000D01*
G01D02*
X62000D01*
G01X50669Y51260D02*
X54269D01*
X55729Y49800D01*
X58657D01*
X58857Y50000D01*
X68031D01*
G01X44331Y43740D02*
X53740D01*
G01X36260Y146000D02*
X35585Y146675D01*
Y151585D01*
X37000Y153000D01*
X49000D01*
X51000Y151000D01*
Y148000D01*
X53000Y146000D01*
X56260D01*
G01X74740Y10000D02*
X81000D01*
G01X75000Y26740D02*
X88000D01*
G01X62000Y35480D02*
Y26740D01*
G01X109000Y23626D02*
X105334D01*
X104960Y24000D01*
X103000D01*
X100260Y26740D01*
X88000D01*
G01X62000D02*
X75000D01*
G01X68031Y50000D02*
X69291Y51260D01*
X69551Y51000D01*
G01D02*
X82764D01*
G01Y39298D02*
Y51000D01*
G01D02*
X95466D01*
G01X82764Y62627D02*
Y69764D01*
G01X149000Y13000D02*
Y22000D01*
X143200Y27800D01*
X125599D01*
X124699Y26900D01*
X120900D01*
X118000Y24000D01*
X113040D01*
X112666Y23626D01*
X109000D01*
G01X104740Y109000D02*
Y104645D01*
X107385Y102000D01*
X109000D01*
G01X129000Y67000D02*
Y73209D01*
X130791Y75000D01*
X134260D01*
G01X124000Y105331D02*
X133669D01*
X136000Y103000D01*
G54D13*
X13000Y116374D03*
Y125626D03*
X109000Y14374D03*
Y23626D03*
G54D23*
G01X94740Y10000D02*
X95020Y9720D01*
Y5620D01*
X94100Y4700D01*
X69300D01*
X67260Y6740D01*
Y10000D01*
G54D14*
X12000Y146000D03*
X22500D03*
X149000Y13000D03*
X138500D03*
G54D24*
G01X27260Y10000D02*
Y16740D01*
G01X36000Y67000D02*
X27757D01*
X26657Y65900D01*
X25384D01*
X23100Y63616D01*
Y47900D01*
X31000Y40000D01*
X35669D01*
G01X36000Y55260D02*
X31845D01*
X27000Y60105D01*
Y62000D01*
G01X17740Y100000D02*
Y88000D01*
G01X28000Y96000D02*
Y78600D01*
X29600Y77000D01*
X32669D01*
G01X15459Y66554D02*
X17581Y68676D01*
Y70686D01*
X17740Y70845D01*
Y75000D01*
G01X10260Y100000D02*
Y104155D01*
X10000Y104415D01*
Y107000D01*
X13000Y110000D01*
Y116374D01*
G01X59000Y14000D02*
Y11991D01*
X57009Y10000D01*
X53740D01*
G01X43000Y61000D02*
X45122Y58878D01*
X47164D01*
X47302Y58740D01*
X50669D01*
G01X44331Y36260D02*
X54260D01*
X62000Y44000D01*
G01X59331Y55000D02*
X53721D01*
X53681Y54960D01*
X40850D01*
X40550Y55260D01*
X36000D01*
G01X64000Y88260D02*
X68550D01*
X68810Y88000D01*
X69000D01*
X70000Y87000D01*
Y72000D01*
X64631Y66631D01*
X62369D01*
X60740Y68260D01*
Y72669D01*
G01X45000Y67000D02*
X36000D01*
G01D02*
Y62740D01*
G01X66000Y74000D02*
Y83000D01*
X61150D01*
X59481Y81331D01*
X57000D01*
G01X53260Y72669D02*
X45289D01*
X44698Y73260D01*
X41331D01*
G01D02*
X37964D01*
X37704Y73000D01*
X34000D01*
X32669Y74331D01*
Y77000D01*
G01X49000Y88260D02*
X42260D01*
X41331Y87331D01*
Y80740D01*
G01X40000Y123669D02*
Y120000D01*
G01D02*
Y114600D01*
X38400Y113000D01*
X35740D01*
G01X40000Y120000D02*
X45000D01*
X49260Y124260D01*
X63331D01*
G01X53000Y113331D02*
Y116400D01*
X54600Y118000D01*
X66000D01*
X68132Y120132D01*
Y126868D01*
G01X43740Y146000D02*
Y138000D01*
G01D02*
Y132331D01*
G01Y138000D02*
X44740Y139000D01*
X48000D01*
X55260Y131740D01*
X63331D01*
G01X68132Y126868D02*
X67000Y128000D01*
X54669D01*
G01X87260Y10000D02*
X87907Y10647D01*
Y13491D01*
X86588Y14810D01*
X83838D01*
X83648Y15000D01*
X82000D01*
G01X84528Y78173D02*
X91758D01*
X91845Y78260D01*
X94000D01*
G01X80000Y99827D02*
Y89000D01*
X75472Y84472D01*
Y78173D01*
G01X86000Y117740D02*
Y121569D01*
X87991Y123560D01*
X88343D01*
X89631Y124848D01*
Y129672D01*
X88343Y130960D01*
X87991D01*
X87951Y131000D01*
X76669D01*
G01X75000Y118000D02*
Y127260D01*
G01X80000Y99827D02*
X74173D01*
X71000Y103000D01*
G01X105331Y138000D02*
X92000D01*
X90000Y140000D01*
Y144000D01*
X96000Y150000D01*
X100000D01*
G01X76669Y131000D02*
X72000D01*
X69000Y134000D01*
Y137000D01*
G01X63740Y146000D02*
X77260D01*
G01X85331Y127260D02*
X75000D01*
G01D02*
X68524D01*
X68132Y126868D01*
G01X96669Y134260D02*
X89178D01*
X88698Y134740D01*
X85331D01*
G01D02*
Y141254D01*
X84740Y141845D01*
Y146000D01*
G01X109000Y14374D02*
X121731D01*
X121845Y14260D01*
X126000D01*
G01X109339Y60016D02*
X120016D01*
X122000Y62000D01*
Y66000D01*
X119000Y69000D01*
Y72000D01*
G01X127740Y96669D02*
Y95783D01*
X125000Y93043D01*
Y47000D01*
X120000Y42000D01*
X116265D01*
X116249Y41984D01*
X109339D01*
G01X107669Y82000D02*
X103000D01*
X101000Y84000D01*
G01X120260Y96669D02*
Y93302D01*
X121132Y92430D01*
Y83132D01*
X120000Y82000D01*
X107669D01*
G01X94000Y78260D02*
X99224D01*
X99384Y78100D01*
X102616D01*
X102776Y78260D01*
X116331D01*
G01X105331Y138000D02*
Y131000D01*
X101331Y127000D01*
X94001D01*
X92631Y125630D01*
Y123605D01*
X92000Y122974D01*
Y105000D01*
X95000Y102000D01*
X99895D01*
X102740Y99155D01*
Y95000D01*
G01X104740Y120000D02*
X112440D01*
X112613Y120173D01*
X116472D01*
G01X97260Y120000D02*
Y109000D01*
G01X96669Y141740D02*
X115676D01*
X115763Y141827D01*
X121000D01*
G01X134260Y35669D02*
X127669D01*
X123000Y31000D01*
G01X151000Y36000D02*
X146000Y31000D01*
X139000D01*
X138000Y32000D01*
Y44331D01*
G01X152000Y47000D02*
X148302D01*
X145000Y50302D01*
Y53669D01*
G01X141260Y62331D02*
X137331D01*
X133000Y58000D01*
G01X141260Y62331D02*
Y58040D01*
X141300Y58000D01*
Y50657D01*
X141740Y50217D01*
Y35669D01*
G01X148740Y62331D02*
Y72740D01*
G01X141740Y88000D02*
Y75000D01*
G01X134260Y88000D02*
Y92155D01*
X134000Y92415D01*
Y95000D01*
X136000Y97000D01*
X141000D01*
G01X148000Y119740D02*
X138000D01*
G01X125528Y120173D02*
X133412D01*
X133845Y119740D01*
X138000D01*
G54D15*
X37000Y26740D03*
Y19260D03*
X50000Y26740D03*
Y19260D03*
X62000Y26740D03*
Y19260D03*
X36000Y55260D03*
X49000Y88260D03*
X36000Y62740D03*
X49000Y95740D03*
X75000Y26740D03*
Y19260D03*
X88000Y26740D03*
Y19260D03*
X64000Y88260D03*
X86000Y117740D03*
Y110260D03*
X64000Y95740D03*
X94000Y85740D03*
Y78260D03*
X126000Y14260D03*
Y21740D03*
X138000Y119740D03*
Y112260D03*
X148000Y119740D03*
Y112260D03*
G54D25*
G01X23000Y82002D02*
X23934Y81068D01*
Y69400D01*
X19600Y65066D01*
Y32005D01*
X32345Y19260D01*
X37000D01*
G01X10260Y79655D02*
Y88000D01*
G01Y79655D02*
Y75000D01*
G01Y79655D02*
X12607Y82002D01*
X23000D01*
G01D02*
Y102740D01*
X28260Y108000D01*
G01Y113000D02*
Y117655D01*
X28000Y117915D01*
Y122000D01*
X22500Y127500D01*
Y146000D01*
G01X38000Y104669D02*
X31591D01*
X28260Y108000D01*
G01D02*
Y113000D01*
G01X37000Y19260D02*
X50000D01*
G01D02*
X62000D01*
G01X49260Y104669D02*
X38000D01*
G01X49000Y95740D02*
X44345D01*
X44085Y96000D01*
X42000D01*
X38000Y100000D01*
Y104669D01*
G01X49000Y95740D02*
X64000D01*
G01X62000Y19260D02*
X75000D01*
G01D02*
X80037D01*
X80177Y19400D01*
X83205D01*
X83345Y19260D01*
X88000D01*
G01X138500Y13000D02*
Y10800D01*
X133427Y5727D01*
X108328D01*
X105055Y9000D01*
X103592D01*
X101000Y11592D01*
Y13000D01*
X99690Y14310D01*
Y14369D01*
X98109Y15950D01*
X98050D01*
X94740Y19260D01*
X88000D01*
G01X64000Y95740D02*
Y107400D01*
X66600Y110000D01*
X85740D01*
X86000Y110260D01*
G01X89000Y95000D02*
Y103000D01*
X86000Y106000D01*
Y110260D01*
G01X89000Y95000D02*
X95260D01*
G01X93655Y90345D02*
X92546D01*
X89000Y93891D01*
Y95000D01*
G01X94000Y85740D02*
Y90000D01*
X93655Y90345D01*
G01X114000Y93000D02*
X109400Y88400D01*
X100698D01*
X100048Y89050D01*
X99371D01*
X98076Y90345D01*
X93655D01*
G01X114000Y93000D02*
X116331Y90669D01*
Y85740D01*
G01X138000Y112260D02*
X137260Y113000D01*
X116600D01*
X114000Y110400D01*
Y93000D01*
G01X138500Y13000D02*
Y20980D01*
X137740Y21740D01*
X126000D01*
G01X138000Y112260D02*
X148000D01*
G54D16*
X59331Y55000D03*
X50669Y51260D03*
Y58740D03*
X35669Y40000D03*
X44331Y43740D03*
Y36260D03*
X32669Y77000D03*
X41331Y80740D03*
Y73260D03*
X54669Y128000D03*
X63331Y131740D03*
Y124260D03*
X76669Y131000D03*
X85331Y134740D03*
Y127260D03*
X107669Y82000D03*
X116331Y85740D03*
Y78260D03*
X105331Y138000D03*
X96669Y134260D03*
Y141740D03*
G54D17*
X57000Y81331D03*
X60740Y72669D03*
X53260D03*
X53000Y113331D03*
X56740Y104669D03*
X49260D03*
X40000Y123669D03*
X36260Y132331D03*
X43740D03*
X120260Y96669D03*
X145000Y53669D03*
X138000Y44331D03*
X141740Y35669D03*
X134260D03*
X141260Y62331D03*
X148740D03*
X124000Y105331D03*
X127740Y96669D03*
G54D18*
X82764Y51000D03*
G54D19*
X75472Y78173D03*
X84528D03*
X116472Y120173D03*
X125528D03*
M02*
